<?xml version="1.0" encoding="UTF-8" standalone="no"?>
<svg
   viewBox="0 0 161.07057 29.558697"
   height="29.558697"
   width="161.07057"
   xml:space="preserve"
   id="svg2"
   version="1.1"
   sodipodi:docname="neuralatex_logo_black.svg"
   inkscape:version="1.1.2 (0a00cf5, 2022-02-04)"
   xmlns:inkscape="http://www.inkscape.org/namespaces/inkscape"
   xmlns:sodipodi="http://sodipodi.sourceforge.net/DTD/sodipodi-0.dtd"
   xmlns="http://www.w3.org/2000/svg"
   xmlns:svg="http://www.w3.org/2000/svg"
   xmlns:rdf="http://www.w3.org/1999/02/22-rdf-syntax-ns#"
   xmlns:cc="http://creativecommons.org/ns#"
   xmlns:dc="http://purl.org/dc/elements/1.1/"><sodipodi:namedview
     id="namedview360"
     pagecolor="#ffffff"
     bordercolor="#666666"
     borderopacity="1.0"
     inkscape:pageshadow="2"
     inkscape:pageopacity="0.0"
     inkscape:pagecheckerboard="0"
     showgrid="false"
     fit-margin-top="0"
     fit-margin-left="0"
     fit-margin-right="0"
     fit-margin-bottom="0"
     inkscape:zoom="3.8922096"
     inkscape:cx="101.35631"
     inkscape:cy="39.309291"
     inkscape:window-width="1920"
     inkscape:window-height="1011"
     inkscape:window-x="0"
     inkscape:window-y="32"
     inkscape:window-maximized="1"
     inkscape:current-layer="svg2" /><metadata
     id="metadata8"><rdf:RDF><cc:Work
         rdf:about=""><dc:format>image/svg+xml</dc:format><dc:type
           rdf:resource="http://purl.org/dc/dcmitype/StillImage" /></cc:Work></rdf:RDF></metadata><defs
     id="defs6"><clipPath
       clipPathUnits="userSpaceOnUse"
       id="clipPath1303"><rect
         style="fill:#ffffff;stroke:#333333;stroke-width:0.999998;stroke-dasharray:8.00003, 8.00003;stroke-dashoffset:1.3"
         id="rect1305"
         width="125.57693"
         height="35.241425"
         x="139.77365"
         y="-743.13354"
         transform="scale(1,-1)" /></clipPath><clipPath
       clipPathUnits="userSpaceOnUse"
       id="clipPath1411"><rect
         style="fill:#ffffff;stroke:#333333;stroke-width:0.999998;stroke-dasharray:8.00003, 8.00003;stroke-dashoffset:1.3"
         id="rect1413"
         width="120.80293"
         height="22.643904"
         x="144.73834"
         y="-736.01862"
         ry="2.8085716"
         rx="2.8085716"
         transform="scale(1,-1)" /></clipPath></defs><g
     transform="matrix(1.3333333,0,0,-1.3333333,-192.98445,980.72495)"
     id="g10"
     clip-path="url(#clipPath1411)"><text
   id="text16"
   style="font-variant:normal;font-size:23.9103px;font-family:'Nimbus Roman';-inkscape-font-specification:NimbusRomNo9L-Regu;writing-mode:lr-tb;fill:#000000;fill-opacity:1;fill-rule:nonzero;stroke:none"
   transform="matrix(1,0,0,-1,144.928,719.213)"><tspan
     id="tspan12"
     y="0"
     x="0">N</tspan><tspan
     id="tspan14"
     y="5.3800001"
     x="14.872">E</tspan></text>
<text
   id="text20"
   style="font-variant:normal;font-size:16.7372px;font-family:'Nimbus Roman';-inkscape-font-specification:NimbusRomNo9L-Regu;writing-mode:lr-tb;fill:#000000;fill-opacity:1;fill-rule:nonzero;stroke:none"
   transform="matrix(1,0,0,-1,172.018,724.005)"><tspan
     id="tspan18"
     y="0"
     x="0">U</tspan></text>
<text
   id="text28"
   style="font-variant:normal;font-size:23.9103px;font-family:'Nimbus Roman';-inkscape-font-specification:NimbusRomNo9L-Regu;writing-mode:lr-tb;fill:#000000;fill-opacity:1;fill-rule:nonzero;stroke:none"
   transform="matrix(1,0,0,-1,182.907,719.213)"><tspan
     id="tspan22"
     y="0"
     x="0">R</tspan><tspan
     id="tspan24"
     y="5.3800001"
     x="13.557">A</tspan><tspan
     id="tspan26"
     y="0"
     x="28.429001">L</tspan></text>
<text
   id="text32"
   style="font-variant:normal;font-size:16.7372px;font-family:'Nimbus Roman';-inkscape-font-specification:NimbusRomNo9L-Regu;writing-mode:lr-tb;fill:#000000;fill-opacity:1;fill-rule:nonzero;stroke:none"
   transform="matrix(1,0,0,-1,217.337,724.005)"><tspan
     id="tspan30"
     y="0"
     x="0">A</tspan></text>
<text
   id="text42"
   style="font-variant:normal;font-size:23.9103px;font-family:'Nimbus Roman';-inkscape-font-specification:NimbusRomNo9L-Regu;writing-mode:lr-tb;fill:#000000;fill-opacity:1;fill-rule:nonzero;stroke:none"
   transform="matrix(1,0,0,-1,225.835,719.213)"><tspan
     id="tspan34"
     y="0"
     x="0">T</tspan><tspan
     id="tspan36"
     y="5.3800001"
     x="10.623">E</tspan><tspan
     id="tspan38"
     y="0"
     x="22.243999 39.507236 54.522903 73.507683 92.109894 102.72607 113.34224 125.29739 131.94446 143.89961 162.88438 169.53145 180.14763 190.76379 198.72592 210.68108 217.32814 229.28329">X:amachinelearning</tspan><tspan
     id="tspan40"
     y="27.895"
     x="-59.861 -53.213936 -46.566872 -34.611725 -26.649593 -16.033421 -8.07129 12.252465 29.515701 37.477833 44.124893 50.771957 57.419022 68.035194 88.358948 95.006012 115.32977 127.28492 139.24007 147.20219 166.18698">librarywritteninpureL</tspan></text>
<text
   id="text46"
   style="font-variant:normal;font-size:16.7372px;font-family:'Nimbus Roman';-inkscape-font-specification:NimbusRomNo9L-Regu;writing-mode:lr-tb;fill:#000000;fill-opacity:1;fill-rule:nonzero;stroke:none"
   transform="matrix(1,0,0,-1,398.022,696.11)"><tspan
     id="tspan44"
     y="0"
     x="0">A</tspan></text>
<text
   id="text54"
   style="font-variant:normal;font-size:23.9103px;font-family:'Nimbus Roman';-inkscape-font-specification:NimbusRomNo9L-Regu;writing-mode:lr-tb;fill:#000000;fill-opacity:1;fill-rule:nonzero;stroke:none"
   transform="matrix(1,0,0,-1,406.52,691.318)"><tspan
     id="tspan48"
     y="0"
     x="0">T</tspan><tspan
     id="tspan50"
     y="5.3800001"
     x="10.623">E</tspan><tspan
     id="tspan52"
     y="0"
     x="22.243">X</tspan></text>
<text
   id="text62"
   style="font-variant:normal;font-size:11.9552px;font-family:'Nimbus Roman';-inkscape-font-specification:NimbusRomNo9L-Regu;writing-mode:lr-tb;fill:#000000;fill-opacity:1;fill-rule:nonzero;stroke:none"
   transform="matrix(1,0,0,-1,158.659,656.429)"><tspan
     id="tspan56"
     y="0"
     x="0 4.6505728 9.9586821 19.259827 24.567936 33.402828 42.034485 49.207603 57.839256 65.012375 73.644035 78.952141 82.93322 88.91082 94.88842 100.19653 103.6994 110.87253 121.68002 125.00357 128.32712 135.83498 143.8091 149.48782 157.99992 163.30803 173.46996 178.77806 184.75566 194.91759 205.72508 209.04863 212.37218 215.69572 219.01926 224.32738 237.81284 246.44449 253.61761 258.93768 266.11081 272.75787 282.05902 285.38257 288.70612">JamesA.D.Gardner,WillRowanandWilliamA.P.Smith</tspan><tspan
     id="tspan58"
     y="14.525"
     x="65.364998 73.996651 79.304764 85.282364 90.590469 94.571556 97.895096 107.19624 112.50436 118.48196 125.98982 131.96742 140.13283 148.10693 154.08453 163.38568 169.36328 175.34088 178.66443 183.97253 192.13794 198.78503 204.09314 207.41669 212.72479 218.70239 224.0105">DepartmentofComputerScience</tspan><tspan
     id="tspan60"
     y="29.049999"
     x="87.242996 95.874657 101.85226 104.87692 110.67519 115.9833 119.96439 124.61495 127.9385 131.26204 141.42397 147.40157 155.56697 162.88354 168.86115 172.84224 178.81984 185.99295 194.6246">UniversityofYork,UK</tspan></text>
<text
   id="text66"
   style="font-variant:normal;font-size:9.9626px;font-family:'Nimbus Roman';-inkscape-font-specification:NimbusRomNo9L-MediItal;writing-mode:lr-tb;fill:#000000;fill-opacity:1;fill-rule:nonzero;stroke:none"
   transform="matrix(1,0,0,-1,59.923,584.364)"><tspan
     id="tspan64"
     y="0"
     x="0 6.6450543 11.626354 15.501805 18.271408 22.14686 27.12816 31.551554">Abstract</tspan></text>
<text
   id="text72"
   style="font-variant:normal;font-size:9.9626px;font-family:'Nimbus Roman';-inkscape-font-specification:NimbusRomNo9L-Medi;writing-mode:lr-tb;fill:#000000;fill-opacity:1;fill-rule:nonzero;stroke:none"
   transform="matrix(1,0,0,-1,94.273,584.364)"><tspan
     id="tspan68"
     y="0"
     x="0 9.9625998 13.838052 26.689806 30.007351 35.546558 38.316158 49.504158 55.043365 60.024666 65.563873 69.987267 73.494102 83.287338 90.480331 102.21628 104.98588 110.52509 113.84263 118.0867 123.068 128.60721 134.14641 138.56981 150.30574">—Inthispaper,weintroduceN</tspan><tspan
     id="tspan70"
     y="2.2969999"
     x="156.504">E</tspan></text>
<text
   id="text76"
   style="font-variant:normal;font-size:6.9738px;font-family:'Nimbus Roman';-inkscape-font-specification:NimbusRomNo9L-Medi;writing-mode:lr-tb;fill:#000000;fill-opacity:1;fill-rule:nonzero;stroke:none"
   transform="matrix(1,0,0,-1,256.425,586.374)"><tspan
     id="tspan74"
     y="0"
     x="0">U</tspan></text>
<text
   id="text84"
   style="font-variant:normal;font-size:9.9626px;font-family:'Nimbus Roman';-inkscape-font-specification:NimbusRomNo9L-Medi;writing-mode:lr-tb;fill:#000000;fill-opacity:1;fill-rule:nonzero;stroke:none"
   transform="matrix(1,0,0,-1,260.962,584.364)"><tspan
     id="tspan78"
     y="0"
     x="0">R</tspan><tspan
     id="tspan80"
     y="2.2969999"
     x="6.197">A</tspan><tspan
     id="tspan82"
     y="0"
     x="12.394">L</tspan></text>
<text
   id="text88"
   style="font-variant:normal;font-size:6.9738px;font-family:'Nimbus Roman';-inkscape-font-specification:NimbusRomNo9L-Medi;writing-mode:lr-tb;fill:#000000;fill-opacity:1;fill-rule:nonzero;stroke:none"
   transform="matrix(1,0,0,-1,276.414,586.259)"><tspan
     id="tspan86"
     y="0"
     x="0">A</tspan></text>
<text
   id="text100"
   style="font-variant:normal;font-size:9.9626px;font-family:'Nimbus Roman';-inkscape-font-specification:NimbusRomNo9L-Medi;writing-mode:lr-tb;fill:#000000;fill-opacity:1;fill-rule:nonzero;stroke:none"
   transform="matrix(1,0,0,-1,279.955,584.364)"><tspan
     id="tspan90"
     y="0"
     x="0">T</tspan><tspan
     id="tspan92"
     y="2.2969999"
     x="4.9840002">E</tspan><tspan
     id="tspan94"
     y="0"
     x="10.384 17.576998">X,</tspan><tspan
     id="tspan96"
     y="11.955"
     x="-230.991 -223.798 -218.2588 -215.4892 -211.0658 -199.84792 -192.65492 -182.55284 -177.01363 -172.59024 -169.82063 -167.05104 -162.77708 -157.8954 -147.79333 -144.47578 -133.8158 -128.2766 -118.17451 -114.85697 -109.31776 -99.215691 -93.676483 -89.25309 -85.37764 -76.381409 -70.842201 -66.418808 -61.995415 -50.777527 -48.007927 -43.58453 -38.60323 -34.329277 -28.79007 -26.020468 -20.481262 -9.8212795 -7.0516772 -4.2820745 1.2571312 5.6805258 10.661825 15.08522">whichwebelievetobethefrstdeeplearninglibrary</tspan><tspan
     id="tspan98"
     y="23.910999"
     x="-230.991 -223.798 -219.3746 -216.60501 -213.28746 -209.96991 -205.54652 -196.77943 -192.35603 -186.81683 -183.49928 -180.72969 -176.48561 -172.06223 -169.29262 -161.07347 -158.30386 -149.53679">writtenentirelyinL</tspan></text>
<text
   id="text104"
   style="font-variant:normal;font-size:6.9738px;font-family:'Nimbus Roman';-inkscape-font-specification:NimbusRomNo9L-Medi;writing-mode:lr-tb;fill:#000000;fill-opacity:1;fill-rule:nonzero;stroke:none"
   transform="matrix(1,0,0,-1,133.479,562.348)"><tspan
     id="tspan102"
     y="0"
     x="0">A</tspan></text>
<text
   id="text112"
   style="font-variant:normal;font-size:9.9626px;font-family:'Nimbus Roman';-inkscape-font-specification:NimbusRomNo9L-Medi;writing-mode:lr-tb;fill:#000000;fill-opacity:1;fill-rule:nonzero;stroke:none"
   transform="matrix(1,0,0,-1,137.019,560.453)"><tspan
     id="tspan106"
     y="0"
     x="0">T</tspan><tspan
     id="tspan108"
     y="2.296"
     x="4.9850001">E</tspan><tspan
     id="tspan110"
     y="0"
     x="10.384 17.576998 23.29553 30.488527 37.601822 43.141029 48.12233 52.545723 59.091152 64.072449 70.627846 75.360077 80.341377 85.880585 93.53186">X.AspartofyourL</tspan></text>
<text
   id="text116"
   style="font-variant:normal;font-size:6.9738px;font-family:'Nimbus Roman';-inkscape-font-specification:NimbusRomNo9L-Medi;writing-mode:lr-tb;fill:#000000;fill-opacity:1;fill-rule:nonzero;stroke:none"
   transform="matrix(1,0,0,-1,233.611,562.348)"><tspan
     id="tspan114"
     y="0"
     x="0">A</tspan></text>
<text
   id="text132"
   style="font-variant:normal;font-size:9.9626px;font-family:'Nimbus Roman';-inkscape-font-specification:NimbusRomNo9L-Medi;writing-mode:lr-tb;fill:#000000;fill-opacity:1;fill-rule:nonzero;stroke:none"
   transform="matrix(1,0,0,-1,237.152,560.453)"><tspan
     id="tspan118"
     y="0"
     x="0">T</tspan><tspan
     id="tspan120"
     y="2.296"
     x="4.9840002">E</tspan><tspan
     id="tspan122"
     y="0"
     x="10.383 20.803879 26.343084 31.324385 35.74778 41.286983 49.585831 54.009224 59.548431">Xdocument</tspan><tspan
     id="tspan124"
     y="11.955"
     x="-188.188 -183.45576 -178.47447 -170.50438 -166.08099 -161.09969 -153.12961 -149.25417 -143.71495 -139.29156 -134.86816 -132.09856 -128.78102 -121.36884 -118.05129 -112.51209 -105.65782 -100.67652 -96.432457 -92.009056 -86.469856 -83.700249 -80.382706 -75.959312 -71.535919 -68.218369 -62.679165 -58.435097 -51.58083 -46.599529 -40.851109 -33.438934 -27.899729 -23.476334 -17.937128 -13.513734 -8.5324345 -3.3319571 2.2072487 6.6306429 9.9481888 17.041559 22.02286 26.446255 34.416336 39.397633 44.93684 52.906921 55.676521 58.994068">youcanspecifythearchitectureofaneuralnetworkandits</tspan><tspan
     id="tspan126"
     y="23.91"
     x="-188.188 -185.4184 -180.4371 -176.56165 -170.17561 -166.85808 -161.31886 -155.77966 -151.35626 -148.03873 -145.26912 -140.28783 -134.74861 -130.87317 -125.8819 -120.3427 -115.9193 -110.3801 -104.84089 -97.906921 -92.367714 -87.486038 -77.782463 -74.46492 -66.983009 -62.001709 -57.578316 -52.039108 -47.615715 -43.192318 -38.211021 -34.893475 -27.959505 -22.978205 -16.044235 -13.274632 -8.2933321 -3.3120317 4.7277865 8.045332 12.468726 17.450027 20.219629 25.758835 28.528439 34.067642 41.559517 47.098724 52.080025 55.397572 60.378868">lossfunctions,defnehowtogenerateorloadtrainingdata,</tspan><tspan
     id="tspan128"
     y="35.865002"
     x="-188.188 -183.2067 -177.6675 -166.6389 -162.76344 -157.22424 -152.80084 -148.37746 -145.60785 -142.2903 -131.81961 -128.50206 -124.07867 -119.09737 -116.32777 -110.78856 -108.01896 -102.47975 -92.01902 -86.629257 -81.647957 -76.108749 -71.685356 -67.361588 -61.82238 -56.84108 -52.417686 -47.436386 -39.137543 -34.714146 -31.396601 -26.973207 -22.549812 -13.184968 -8.2036686 -2.6644628 8.3641357 12.78753 17.768829 23.308035 27.73143 32.154823 34.924427 43.223274 47.646667 53.185871 56.503418 60.378868">andspecifytraininghyperparametersandexperiments.</tspan><tspan
     id="tspan130"
     y="47.82"
     x="-188.188 -178.2254 -172.68619 -168.2628 -158.74852 -155.43097 -149.89177 -141.4933 -135.95409 -130.97279 -126.54939 -121.01019 -112.71134 -108.28795 -102.74874 -95.46608 -92.69648 -84.845947 -80.422554 -75.441254 -67.14241 -61.603203 -58.833603 -56.063999 -51.640606 -46.101398 -39.63567 -36.318127 -30.778919 -22.380447">Whenthedocumentiscompiled,theL</tspan></text>
<text
   id="text136"
   style="font-variant:normal;font-size:6.9738px;font-family:'Nimbus Roman';-inkscape-font-specification:NimbusRomNo9L-Medi;writing-mode:lr-tb;fill:#000000;fill-opacity:1;fill-rule:nonzero;stroke:none"
   transform="matrix(1,0,0,-1,217.828,514.528)"><tspan
     id="tspan134"
     y="0"
     x="0">A</tspan></text>
<text
   id="text158"
   style="font-variant:normal;font-size:9.9626px;font-family:'Nimbus Roman';-inkscape-font-specification:NimbusRomNo9L-Medi;writing-mode:lr-tb;fill:#000000;fill-opacity:1;fill-rule:nonzero;stroke:none"
   transform="matrix(1,0,0,-1,221.369,512.633)"><tspan
     id="tspan138"
     y="0"
     x="0">T</tspan><tspan
     id="tspan140"
     y="2.2969999"
     x="4.9840002">E</tspan><tspan
     id="tspan142"
     y="0"
     x="10.384 21.552074 25.97547 30.95677 39.255615 44.794819 47.564423 50.334026 54.75742 63.155891 70.348892 73.118492 75.888092">Xcompilerwill</tspan><tspan
     id="tspan144"
     y="11.955"
     x="-172.405 -167.42371 -163.00031 -157.46111 -153.0377 -148.6143 -143.63301 -140.31546 -130.44254 -125.46123 -115.57833 -112.80872 -107.82742 -102.84613 -91.857376 -88.539833 -84.11644 -79.135139 -76.36554 -70.826332 -68.056725 -62.517521 -52.086681 -46.547474 -41.566174 -38.248627 -33.26733 -25.327137 -22.00959 -17.586197 -12.604896 -9.8352928 1.1634172 4.4809632 10.020168 19.893105 25.43231 29.855705 33.173252 40.266621 45.247921 49.671318 55.210522 63.150715 67.574112 73.113312">generateorloadtrainingdata,trainthenetwork,run</tspan><tspan
     id="tspan146"
     y="23.910999"
     x="-172.405 -167.98161 -163.00031 -157.46111 -153.0377 -148.6143 -145.84471 -137.54587 -133.12247 -127.58326 -124.26572 -120.39027 -114.50237 -109.52107 -103.98186 -95.04541 -90.06411 -85.640717 -80.101509 -75.678116 -71.254723 -66.273422 -62.955875 -55.135235 -49.596031 -44.614731 -39.075523 -34.831455 -30.408062 -26.53261 -20.644714 -13.99966 -8.460454 -5.6908517 1.5818464 7.1210518 12.102352 17.641558 22.064953 29.885593 34.866894 39.290287 44.829494 49.252888 53.676281 58.657581 61.975128 66.398521 73.671219">experiments,andgeneratefgures.Thispapergeneratesa</tspan><tspan
     id="tspan148"
     y="35.866001"
     x="-172.405 -167.98161 -163.00031 -157.46111 -151.92189 -146.9406 -136.29057 -131.30928 -126.32797 -118.9955 -113.4563 -108.475 -105.70539 -100.16619 -94.497467 -90.622017 -85.082809 -82.31321 -77.889816 -72.908516 -67.787735 -62.248531 -57.267231 -53.949684 -48.968388 -45.092934 -40.66954 -37.351994 -32.51017 -29.192625 -24.76923 -19.787931 -17.018328 -11.479122 -5.2524972 2.0700138 5.3875594 12.48093 19.813404 22.583008 27.564306 32.44598 36.869377 43.643944 53.048637 59.693691 68.132011 73.113312">random100pointspiraldataset,trainsatwolayerMLPon</tspan><tspan
     id="tspan150"
     y="47.820999"
     x="-172.405 -169.63539 -166.31786 -161.14726 -156.87331 -151.99164 -147.01033 -144.24072 -138.70152 -133.72023 -130.40268 -125.97929 -119.4239 -114.4426 -106.22345 -98.56221 -93.023003 -90.253403 -86.935852 -83.618309 -79.194916 -74.950844 -70.527451 -64.988243 -59.000725 -54.577332 -49.596031 -44.056824 -38.51762 -33.53632 -22.557533 -18.682081 -13.142877 -10.373274 -5.9498792 -0.96857917 4.4809632 10.020168 15.001469 18.319014 23.300314 27.175766 31.599161 34.916706 40.087296 45.626499 49.870567 54.851868 60.391075 65.930283 70.353676 74.777069">it,evaluatesonadifferentrandomspiraldataset,produces</tspan><tspan
     id="tspan152"
     y="59.776001"
     x="-172.405 -166.8658 -164.09619 -159.1149 -155.79735 -147.13985 -142.15854 -136.61934 -126.29809 -122.98055 -117.99924 -112.46004 -109.69043 -105.26704 -96.609543 -91.628242 -83.528648 -79.284576 -74.861183 -70.985733 -65.446526 -62.676922 -59.359379 -55.483925 -48.211227 -41.566174 -36.02697 -26.821526 -21.28232 -16.30102 -10.761815 -6.3384204 2.8670218 6.1845675 11.165868 16.147167 26.468422 31.44972 41.21307 46.752274 51.733574 57.272781 61.696175 70.353676 73.671219">plotsandtablesofresults.Thepapertook48hoursto</tspan><tspan
     id="tspan154"
     y="71.731003"
     x="-172.405 -167.98161 -163.00031 -154.70146 -149.16225 -146.39265 -143.62305 -133.59071 -128.60941 -123.07021 -111.92206 -108.60451 -103.06531 -93.032967 -88.609573 -83.070366 -79.752823 -76.983215 -72.739151 -62.70681 -58.83136 -53.85006 -48.310856 -44.066788 -39.643391 -29.611053 -25.18766 -20.20636 -14.667154 -4.6348162 -1.5663352 3.4149649 13.447303">compileandtheentiresourcecodeforN</tspan><tspan
     id="tspan156"
     y="74.028"
     x="19.643999">E</tspan></text>
<text
   id="text162"
   style="font-variant:normal;font-size:6.9738px;font-family:'Nimbus Roman';-inkscape-font-specification:NimbusRomNo9L-Medi;writing-mode:lr-tb;fill:#000000;fill-opacity:1;fill-rule:nonzero;stroke:none"
   transform="matrix(1,0,0,-1,246.662,442.912)"><tspan
     id="tspan160"
     y="0"
     x="0">U</tspan></text>
<text
   id="text170"
   style="font-variant:normal;font-size:9.9626px;font-family:'Nimbus Roman';-inkscape-font-specification:NimbusRomNo9L-Medi;writing-mode:lr-tb;fill:#000000;fill-opacity:1;fill-rule:nonzero;stroke:none"
   transform="matrix(1,0,0,-1,251.199,440.902)"><tspan
     id="tspan164"
     y="0"
     x="0">R</tspan><tspan
     id="tspan166"
     y="2.2969999"
     x="6.197">A</tspan><tspan
     id="tspan168"
     y="0"
     x="12.393">L</tspan></text>
<text
   id="text174"
   style="font-variant:normal;font-size:6.9738px;font-family:'Nimbus Roman';-inkscape-font-specification:NimbusRomNo9L-Medi;writing-mode:lr-tb;fill:#000000;fill-opacity:1;fill-rule:nonzero;stroke:none"
   transform="matrix(1,0,0,-1,266.651,442.796)"><tspan
     id="tspan172"
     y="0"
     x="0">A</tspan></text>
<text
   id="text190"
   style="font-variant:normal;font-size:9.9626px;font-family:'Nimbus Roman';-inkscape-font-specification:NimbusRomNo9L-Medi;writing-mode:lr-tb;fill:#000000;fill-opacity:1;fill-rule:nonzero;stroke:none"
   transform="matrix(1,0,0,-1,270.192,440.902)"><tspan
     id="tspan176"
     y="0"
     x="0">T</tspan><tspan
     id="tspan178"
     y="2.2969999"
     x="4.9840002">E</tspan><tspan
     id="tspan180"
     y="0"
     x="10.383 23.18494 25.954544">Xis</tspan><tspan
     id="tspan182"
     y="11.956"
     x="-221.228 -216.80461 -211.8233 -206.2841 -202.96655 -197.98526 -195.21565 -189.67645 -185.25305 -175.97787 -168.78487 -166.01527 -162.69772 -157.15852 -154.38892 -145.11374 -141.79619 -136.25699 -128.09761 -124.22216 -119.24086 -113.70166 -109.45759 -105.03419 -96.874825 -92.451431 -87.470131 -81.930923 -73.771561 -68.79026 -61.736736 -58.419189 -52.879986 -44.720615 -39.181412 -34.200111 -28.660904 -24.237511 -20.810375">containedwithinthesourcecodeofthepaper.</tspan><tspan
     id="tspan184"
     y="23.874001"
     x="-210.269 -200.95396 -190.96149 -185.42227 -181.17821 -176.19691 -170.6577 -165.67641 -161.80095 -151.79851 -148.48096 -141.38759 -130.83719 -125.29798 -120.87459 -108.10254 -99.803688 -95.380295 -92.062752 -87.639359 -84.869751 -80.446358 -76.570908 -67.684265 -64.366722 -58.827518 -48.83503 -38.872429 -34.449036 -31.679432 -28.361887 -25.04434 -20.620947 -9.5026846 -5.6272335 5.4810658 12.12612 17.10742 20.424965 24.84836">Weproposetwonewmetrics:theWrittenInLatex</tspan><tspan
     id="tspan186"
     y="35.828999"
     x="-221.228 -217.91046 -207.94786 -204.0724 -197.42735 -187.28542 -178.98657 -174.56319 -171.24564 -166.82224 -164.05264 -152.80487 -144.50601 -140.08263 -135.10132 -131.22588 -125.68667 -121.4426 -117.0192 -106.31937 -103.00182 -97.462624 -86.214844 -80.675636 -76.431572 -71.450272 -65.911064 -60.929768 -56.506371 -53.188828 -50.419224 -45.437923 -33.074337 -28.093037 -17.951109 -6.1454287 2.1534171 7.134717 11.558111 17.097317 19.86692 25.406126">(WIL)metricmeasurestheproportionofamachine</tspan><tspan
     id="tspan188"
     y="47.785"
     x="-221.228 -218.4584 -214.035 -209.0537 -204.77975 -199.24054 -196.47093 -190.93173 -179.23564 -176.46603 -173.69644 -168.15723 -163.73384 -158.75253 -154.32915 -142.64301 -139.32547 -133.78625 -128.80496 -118.77262 -116.00302 -105.41277 -98.21978 -93.796387 -91.026779 -87.709236 -84.391685 -79.968292 -67.724258 -64.954659 -52.700657 -47.161453 -41.622246 -37.378181 -26.239992">learninglibrarythatiswritteninpureL</tspan></text>
<text
   id="text194"
   style="font-variant:normal;font-size:6.9738px;font-family:'Nimbus Roman';-inkscape-font-specification:NimbusRomNo9L-Medi;writing-mode:lr-tb;fill:#000000;fill-opacity:1;fill-rule:nonzero;stroke:none"
   transform="matrix(1,0,0,-1,247.008,395.012)"><tspan
     id="tspan192"
     y="0"
     x="0">A</tspan></text>
<text
   id="text220"
   style="font-variant:normal;font-size:9.9626px;font-family:'Nimbus Roman';-inkscape-font-specification:NimbusRomNo9L-Medi;writing-mode:lr-tb;fill:#000000;fill-opacity:1;fill-rule:nonzero;stroke:none"
   transform="matrix(1,0,0,-1,250.549,393.117)"><tspan
     id="tspan196"
     y="0"
     x="0">T</tspan><tspan
     id="tspan198"
     y="2.296"
     x="4.9840002">E</tspan><tspan
     id="tspan200"
     y="0"
     x="10.384 17.576998 26.78244 33.975437 39.514641 42.284245 45.053848">X,while</tspan><tspan
     id="tspan202"
     y="11.955"
     x="-201.58501 -198.26746 -192.72826 -181.62991 -176.09071 -171.10941 -165.57021 -161.32613 -156.90274 -145.81436 -138.62137 -133.64006 -128.10086 -117.00253 -109.25163 -99.269096 -89.864403 -85.44101 -82.123466 -76.584259 -71.602959 -59.388809 -56.619209 -44.415024 -38.875816 -33.894516 -28.35531 -24.111244 -19.687849 -8.5895128 -1.3965156 3.5847845 9.1239901 20.222326 25.203627 35.186153 41.173676 46.154976">theSourceCodeOfMethodinSourceCodeofPa-</tspan><tspan
     id="tspan204"
     y="23.91"
     x="-201.58501 -196.04579 -191.62241 -181.45059 -178.13304 -172.59384 -165.40083 -157.64993 -148.24524 -144.36978 -138.83058 -131.63759 -123.88668 -117.79954 -108.73357 -100.43472 -96.01133 -92.693779 -88.270386 -85.500786 -75.328972 -67.030121 -62.606731 -57.625431 -53.749977 -48.210773 -43.966705 -39.543312 -29.919439 -26.601894 -21.062689 -10.890873 -5.3516679 -1.1076002 3.8736999 9.4129057 14.394205 18.8176 22.135145 24.904749 29.886049 41.173676 46.154976">per(SCOMISCOP)metricmeasurestheproportionof</tspan><tspan
     id="tspan206"
     y="35.865002"
     x="-201.58501 -190.65602 -185.11682 -180.13553 -174.59631 -170.17293 -165.74953 -162.8006 -152.96751 -150.19791 -141.89906 -136.35986 -133.59026 -129.16685 -120.86801 -116.44462 -110.90542 -107.58787 -102.60657 -99.289024 -96.519417 -91.538124 -80.051239 -76.733696 -71.194489 -66.213188 -56.947971 -54.178371 -44.345284 -39.92189 -34.94059 -29.401384 -26.083838 -21.102539 -18.342897 -12.803693 -8.3802986 3.1165421 10.30954 13.079143 16.396688 21.935894 24.705496 36.192375 39.509918 45.049126">apaper’simplementationthatiscontainedwithinthe</tspan><tspan
     id="tspan208"
     y="47.82"
     x="-201.58501 -196.04579 -191.0645 -185.52528 -181.1019 -171.1393 -167.26384 -162.28255 -156.74333 -152.49927 -148.07588 -143.65248 -135.63258 -126.31756 -116.35496 -111.37366 -107.12959 -97.176949 -93.301498 -89.983955 -85.002655 -81.685112 -77.261711 -73.944168 -68.962868 -65.645325 -62.327778 -59.010231 -53.471027 -49.04763 -45.730087 -40.748787 -36.32539 -27.468639 -24.40016 -19.418859 -9.4562588 -3.9170535 1.0642467 4.3817925 15.450241 23.749086 28.172482 31.490026 35.913422 38.683025 43.106419 46.981869">papersource.Wearestate-of-the-artforbothmetrics,</tspan><tspan
     id="tspan210"
     y="59.775002"
     x="-201.58501 -196.6037 -191.0645 -187.74695 -182.20775 -177.78435 -173.36095 -170.29248 -165.31117 -160.88777 -152.58893 -149.81934 -144.28012 -133.54044 -130.2229 -124.68369 -114.51188 -107.31888 -102.89548 -99.020035 -91.827034 -87.403641 -78.327713 -73.346413 -67.807205 -56.509621 -50.601795 -46.178402 -41.197102 -35.657898 -31.782446 -28.713964 -23.732664 -19.309271 -11.010425 -6.5870304 3.5847845 9.1239901 14.10529 19.644495 24.06789 28.491285 32.366737 40.615768 45.597069">outperformingtheResNetandTransformerpapers,as</tspan><tspan
     id="tspan212"
     y="71.731003"
     x="-201.58501 -194.392 -189.96861 -187.19901 -181.4705 -176.48921 -169.65486 -166.33733 -160.79811 -153.41583 -147.32867 -142.34738 -136.61888 -131.63759 -127.39352 -122.97012 -114.47202 -109.49072 -103.95152 -95.463387 -89.734886 -85.311493 -79.772293 -75.896835 -70.915535 -66.492142 -60.952938 -56.071266 -45.919376 -43.149773 -40.380169 -34.840965 -30.41757 -25.43627 -21.012875 -18.243273 -13.819878 -9.9444265 -4.494884 1.0443214 6.0256214 11.564827 15.808894 20.232288 27.614576 32.037971 37.019272 42.558475 46.981869">wellasthePyTorchandTensorfowlibraries.Sourcecode,</tspan><tspan
     id="tspan214"
     y="83.685997"
     x="-201.58501 -196.04579 -191.0645 -186.6411 -181.1019 -172.80305 -168.37965 -162.84045 -159.5229 -154.5416 -151.22406 -148.45445 -143.47316 -137.93394 -129.51555 -124.53425 -121.76465 -116.22544 -111.80205 -106.82075 -102.9453 -94.516937 -90.093544 -85.670151 -80.68885 -75.149643 -71.8321 -60.92305 -57.0476 -52.624207 -47.642906 -39.344059 -29.540861 -24.559561 -19.020355 -7.5434399 -2.5621397 8.9048128 11.674416 16.815117 21.796417 24.566019 27.883566 32.864864 36.182411 38.952015 43.933315">documentation,videos,cryptoscamsandaninvitation</tspan><tspan
     id="tspan216"
     y="95.640999"
     x="-201.58501 -198.26746 -186.99976 -184.23015 -179.08945 -174.20778 -169.78438 -165.90894 -156.30498 -153.53539 -141.70978 -138.39223 -132.85303 -122.13326 -117.70987 -112.72857 -104.42973 -96.130882 -91.707481 -87.463417 -83.040024 -80.270416 -75.289124 -72.519516 -69.749916 -65.874466 -60.893162 -57.575619 -54.806015 -49.824715 -37.999107 -33.017807 -23.413862">toinvestinthecommercialisationofN</tspan><tspan
     id="tspan218"
     y="97.936996"
     x="-17.218">E</tspan></text>
<text
   id="text224"
   style="font-variant:normal;font-size:6.9738px;font-family:'Nimbus Roman';-inkscape-font-specification:NimbusRomNo9L-Medi;writing-mode:lr-tb;fill:#000000;fill-opacity:1;fill-rule:nonzero;stroke:none"
   transform="matrix(1,0,0,-1,238.979,299.486)"><tspan
     id="tspan222"
     y="0"
     x="0">U</tspan></text>
<text
   id="text232"
   style="font-variant:normal;font-size:9.9626px;font-family:'Nimbus Roman';-inkscape-font-specification:NimbusRomNo9L-Medi;writing-mode:lr-tb;fill:#000000;fill-opacity:1;fill-rule:nonzero;stroke:none"
   transform="matrix(1,0,0,-1,243.516,297.476)"><tspan
     id="tspan226"
     y="0"
     x="0">R</tspan><tspan
     id="tspan228"
     y="2.296"
     x="6.197">A</tspan><tspan
     id="tspan230"
     y="0"
     x="12.394">L</tspan></text>
<text
   id="text236"
   style="font-variant:normal;font-size:6.9738px;font-family:'Nimbus Roman';-inkscape-font-specification:NimbusRomNo9L-Medi;writing-mode:lr-tb;fill:#000000;fill-opacity:1;fill-rule:nonzero;stroke:none"
   transform="matrix(1,0,0,-1,258.968,299.371)"><tspan
     id="tspan234"
     y="0"
     x="0">A</tspan></text>
<text
   id="text246"
   style="font-variant:normal;font-size:9.9626px;font-family:'Nimbus Roman';-inkscape-font-specification:NimbusRomNo9L-Medi;writing-mode:lr-tb;fill:#000000;fill-opacity:1;fill-rule:nonzero;stroke:none"
   transform="matrix(1,0,0,-1,262.509,297.476)"><tspan
     id="tspan238"
     y="0"
     x="0">T</tspan><tspan
     id="tspan240"
     y="2.296"
     x="4.9840002">E</tspan><tspan
     id="tspan242"
     y="0"
     x="10.384 23.863398 28.844698 33.088764">Xare</tspan><tspan
     id="tspan244"
     y="11.955"
     x="-213.545 -208.81276 -203.93109 -198.9498 -196.18019 -193.41058 -188.42929 -182.89008 -180.12048 -171.96111 -166.97981 -159.92628 -154.38708 -149.96368 -144.42448 -140.00108 -135.01979 -132.25018 -127.26888 -123.95134 -119.52795 -114.54665 -112.05599 -107.6326 -102.6513 -94.352455">availableatneuralatex.com.</tspan></text>
<text
   id="text250"
   style="font-variant:normal;font-size:10.9589px;font-family:'Nimbus Roman';-inkscape-font-specification:NimbusRomNo9L-Regu;writing-mode:lr-tb;fill:#000000;fill-opacity:1;fill-rule:nonzero;stroke:none"
   transform="matrix(1,0,0,-1,131.732,265.008)"><tspan
     id="tspan248"
     y="0"
     x="0 4.1972585 12.964378">I.I</tspan></text>
<text
   id="text254"
   style="font-variant:normal;font-size:8.7671px;font-family:'Nimbus Roman';-inkscape-font-specification:NimbusRomNo9L-Regu;writing-mode:lr-tb;fill:#000000;fill-opacity:1;fill-rule:nonzero;stroke:none"
   transform="matrix(1,0,0,-1,148.894,265.008)"><tspan
     id="tspan252"
     y="0"
     x="0 6.8734064 12.764897 18.805429 25.678837 32.543476 39.416882 45.808098 51.699589 55.162594 62.035999">NTRODUCTION</tspan></text>
<text
   id="text260"
   style="font-variant:normal;font-size:10.9589px;font-family:'Nimbus Roman';-inkscape-font-specification:NimbusRomNo9L-Regu;writing-mode:lr-tb;fill:#000000;fill-opacity:1;fill-rule:nonzero;stroke:none"
   transform="matrix(1,0,0,-1,59.923,248.258)"><tspan
     id="tspan256"
     y="0"
     x="0 10.345201 15.824652 18.871225 21.917801 31.079441 36.558891 40.208202 43.25478 48.120529 57.906826 63.386276 67.649292 72.515038 82.290382 87.156128 95.72599 104.88763 110.36708 115.84653 120.71228 126.19173 134.71776 139.58351 145.06296 152.41638 157.89583 161.54515 166.4109 171.89035 176.7561 180.40541 185.27116 188.31773 191.36432 196.84377 206.61909 215.14513 220.01088 223.66019 229.13963 234.61909">Whileoftenusedasadocumentpreparationmarkup</tspan><tspan
     id="tspan258"
     y="13.335"
     x="-10.959 -7.912426 -3.0466743 2.4327757 7.9122257 13.391676 18.257427 23.736877 28.602629 35.550571 38.597145 48.284813 51.824539 56.690289 61.556042 68.799873">language,infactL</tspan></text>
<text
   id="text264"
   style="font-variant:normal;font-size:7.6712px;font-family:'Nimbus Roman';-inkscape-font-specification:NimbusRomNo9L-Regu;writing-mode:lr-tb;fill:#000000;fill-opacity:1;fill-rule:nonzero;stroke:none"
   transform="matrix(1,0,0,-1,131.478,237.12)"><tspan
     id="tspan262"
     y="0"
     x="0">A</tspan></text>
<text
   id="text274"
   style="font-variant:normal;font-size:10.9589px;font-family:'Nimbus Roman';-inkscape-font-specification:NimbusRomNo9L-Regu;writing-mode:lr-tb;fill:#000000;fill-opacity:1;fill-rule:nonzero;stroke:none"
   transform="matrix(1,0,0,-1,135.373,234.923)"><tspan
     id="tspan266"
     y="0"
     x="0">T</tspan><tspan
     id="tspan268"
     y="2.4649999"
     x="4.869">E</tspan><tspan
     id="tspan270"
     y="0"
     x="10.195 22.315544 25.362118 33.833347 36.879921 39.926495 44.189507 49.05526 52.101833 59.948406 69.022377 75.225113 80.704559 84.353874 87.400452 92.879898 98.359352 102.00867 106.87441 112.35387 120.87989 126.35934 129.40591 134.27167 137.31824 146.39221 151.87166 155.52097 161.00043">XisitselfaTuring-completepro-</tspan><tspan
     id="tspan272"
     y="13.334"
     x="-86.408997 -80.92955 -77.280235 -72.414482 -63.888462 -55.362438 -52.315861 -46.836411 -36.458332 -33.411758 -28.546007 -23.066559 -17.587109 -12.107658 -7.2419062 -1.7624564 3.1032951 10.73069">gramminglanguage.L</tspan></text>
<text
   id="text278"
   style="font-variant:normal;font-size:7.6712px;font-family:'Nimbus Roman';-inkscape-font-specification:NimbusRomNo9L-Regu;writing-mode:lr-tb;fill:#000000;fill-opacity:1;fill-rule:nonzero;stroke:none"
   transform="matrix(1,0,0,-1,148.858,223.785)"><tspan
     id="tspan276"
     y="0"
     x="0">A</tspan></text>
<text
   id="text300"
   style="font-variant:normal;font-size:10.9589px;font-family:'Nimbus Roman';-inkscape-font-specification:NimbusRomNo9L-Regu;writing-mode:lr-tb;fill:#000000;fill-opacity:1;fill-rule:nonzero;stroke:none"
   transform="matrix(1,0,0,-1,152.753,221.589)"><tspan
     id="tspan280"
     y="0"
     x="0">T</tspan><tspan
     id="tspan282"
     y="2.4660001"
     x="4.869">E</tspan><tspan
     id="tspan284"
     y="0"
     x="10.195 23.005955 28.485405 33.351154 36.397732 39.17033 44.485397 49.351151 52.397724 62.764843 68.244293 71.893608 77.208672 82.688126 85.734695 91.214149 96.079903 105.24154 110.44701 115.31277 118.96208 122.00866 126.8744 132.35385 135.40044 140.26619 144.52919">Xnativelyprovidesvariables,</tspan><tspan
     id="tspan286"
     y="13.335"
     x="-103.789 -100.74242 -95.262978 -89.783524 -84.304077 -75.36161 -70.495865 -65.016411 -54.846554 -49.980801 -44.50135 -39.0219 -33.54245 -30.495876 -27.449303 -24.402729 -18.923279 -13.443829 -8.5780764 -5.5315027 3.4109597 8.8904095 11.936984 21.493145">loopsandconditionalsviaT</tspan><tspan
     id="tspan288"
     y="15.801"
     x="26.358">E</tspan><tspan
     id="tspan290"
     y="13.335"
     x="31.684 44.275776 49.755226 53.404541 56.451115 64.977135 68.023712 71.07029 73.842888 79.157951 84.023705 88.28672 95.71685 103.62918 109.10863 112.1552 115.20177 124.74698 130.22643 133.27301 138.75246 143.61821">Xprimitives,whileother</tspan><tspan
     id="tspan292"
     y="26.669001"
     x="-103.789 -100.13969 -95.273933 -90.40818 -87.36161 -81.882156 -78.232841 -73.367096 -65.498604 -61.235592 -55.756142 -50.890388 -41.805462 -36.939709 -29.060261 -23.580811 -18.10136 -15.065745 -10.199994 -5.3342423 -2.2876682 1.3616455 6.8410954 10.490409 13.536983 18.402735 23.882185 26.928759 31.79451 34.841084 37.887661 43.367107 52.462997 57.328747 60.978062 69.449287 73.712303 79.19175 84.671204 90.15065 95.630104 99.279419 102.32599 107.19174 116.27667 121.75612 124.8027 133.27393 138.13968 143.61913">featuressuchasobject-orientationaresupportedviaap-</tspan><tspan
     id="tspan294"
     y="40.004002"
     x="-103.789 -98.309547 -94.660233 -89.180786 -83.70134 -80.052025 -77.005447 -72.139694 -69.093124 -61.509563 -56.030113 -51.164364 -46.298611 -40.81916 -35.953407 -30.473959 -25.608208 -18.616428 -14.967115 -9.4876652 -5.8383517 -0.38081959 6.435616 11.301368 14.347942 19.816433 22.863007 29.230127 34.709579 40.18903 48.397243 53.262997 58.742447 64.221893 68.484909 73.964355 77.010933 82.775314 85.821884 91.301338 98.895859 103.7616 109.24106 112.89037 117.75612 120.8027 125.66845 133.86571 136.91228 139.95885 144.22186">propriatepackages[9].Yet,ifyouconsultthecuratedlist</tspan><tspan
     id="tspan296"
     y="53.339001"
     x="-103.789 -98.309547 -91.021881 -86.320511 -78.408188 -73.542435 -69.279427 -63.799973 -55.273949 -46.769844 -38.24382 -33.378067 -28.512316 -23.032866 -19.986292 -14.506842 -5.9917765 -2.9452021 1.9205494 6.7863011 10.435615 15.915065 18.961639 24.44109 33.558895 37.208206 40.857521 45.723274 54.249298 58.841076 66.643814 72.12326 75.772575 81.252029 85.515038 91.89312 94.93969 97.986267 103.46571 107.11503 111.98078 115.6301 118.67667 123.54242 131.44379 136.30954 141.78899">ofawesomemachinelearningframeworks,librariesand</tspan><tspan
     id="tspan298"
     y="66.672997"
     x="-103.789 -99.525986 -94.046539 -90.397224 -87.350647 -79.547913 -74.682159 -71.032845 -61.662987 -58.013676 -52.534225 -42.550667 -39.504093 -34.63834 -29.158892 -23.679441 -18.199991 -13.334239 -7.8547893 -2.9890378 5.1643839 8.8136978 14.293147 17.942461 25.186295">software(bylanguage)[6],L</tspan></text>
<text
   id="text304"
   style="font-variant:normal;font-size:7.6712px;font-family:'Nimbus Roman';-inkscape-font-specification:NimbusRomNo9L-Regu;writing-mode:lr-tb;fill:#000000;fill-opacity:1;fill-rule:nonzero;stroke:none"
   transform="matrix(1,0,0,-1,180.692,157.112)"><tspan
     id="tspan302"
     y="0"
     x="0">A</tspan></text>
<text
   id="text316"
   style="font-variant:normal;font-size:10.9589px;font-family:'Nimbus Roman';-inkscape-font-specification:NimbusRomNo9L-Regu;writing-mode:lr-tb;fill:#000000;fill-opacity:1;fill-rule:nonzero;stroke:none"
   transform="matrix(1,0,0,-1,184.587,154.916)"><tspan
     id="tspan306"
     y="0"
     x="0">T</tspan><tspan
     id="tspan308"
     y="2.4660001"
     x="4.869">E</tspan><tspan
     id="tspan310"
     y="0"
     x="10.195 22.611433 25.658009 34.425129 39.904579 45.384029 52.934711 57.526489 62.841557 67.707306 77.690865 80.737442 86.216888 91.082642 94.129211 99.608665 105.08811 109.95387">Xisnotevenincluded</tspan><tspan
     id="tspan312"
     y="13.335"
     x="-135.623 -130.75725 -122.83396 -114.30794 -109.44218 -104.57644 -101.52986 -96.828491 -91.349045 -85.869591 -82.220284 -73.069595 -67.590149 -60.280563 -54.801113 -51.151798 -45.672348 -40.192898 -36.543587 -31.677834 -23.15181 -14.625785 -11.579211 -6.099761 3.0399618 6.0865359 10.952288 16.431738 21.911188 27.390638 32.25639 37.73584 42.601589 49.001587 55.697475 61.176926 64.223503 72.146782 80.672806 86.15226 89.198837 91.971436 97.17691 102.04266 105.08924 109.95499">asacategoryofprogramminglanguage.Thismotivated</tspan><tspan
     id="tspan314"
     y="26.669001"
     x="-135.623 -130.14355 -122.04492 -118.99835 -109.68328 -101.77096 -98.121643 -95.075073 -92.028496 -83.327126 -74.625763 -69.146309 -64.280563 -59.41481 -50.099743 -47.053169 -42.18742 -37.321667 -33.672352 -28.192904 -25.14633 -19.66688 -10.351814 -7.3052397 -4.2586656 1.2207843 4.8700981 9.7358494 13.385163 22.700228 27.565979 33.045429 36.092003 39.138577 42.787891 47.653645 50.700218 60.015282 63.061855 72.376923">ustowriteadeeplearninglibraryentirelyinL</tspan></text>
<text
   id="text320"
   style="font-variant:normal;font-size:7.6712px;font-family:'Nimbus Roman';-inkscape-font-specification:NimbusRomNo9L-Regu;writing-mode:lr-tb;fill:#000000;fill-opacity:1;fill-rule:nonzero;stroke:none"
   transform="matrix(1,0,0,-1,259.713,130.443)"><tspan
     id="tspan318"
     y="0"
     x="0">A</tspan></text>
<text
   id="text328"
   style="font-variant:normal;font-size:10.9589px;font-family:'Nimbus Roman';-inkscape-font-specification:NimbusRomNo9L-Regu;writing-mode:lr-tb;fill:#000000;fill-opacity:1;fill-rule:nonzero;stroke:none"
   transform="matrix(1,0,0,-1,263.608,128.247)"><tspan
     id="tspan322"
     y="0"
     x="0">T</tspan><tspan
     id="tspan324"
     y="2.4660001"
     x="4.869">E</tspan><tspan
     id="tspan326"
     y="0"
     x="10.195 18.107327">X.</tspan></text>
<text
   id="text332"
   style="font-variant:normal;font-size:10.9589px;font-family:'Nimbus Roman';-inkscape-font-specification:NimbusRomNo9L-ReguItal;writing-mode:lr-tb;fill:#000000;fill-opacity:1;fill-rule:nonzero;stroke:none"
   transform="matrix(1,0,0,-1,48.964,107.734)"><tspan
     id="tspan330"
     y="0"
     x="0 6.695888 14.915063 23.035608 28.515059 31.561632 34.608208 41.183548 48.493134 53.972584 59.452034 62.498608">A.Wait,what?</tspan></text>
<text
   id="text336"
   style="font-variant:normal;font-size:10.9589px;font-family:'Nimbus Roman';-inkscape-font-specification:NimbusRomNo9L-Regu;writing-mode:lr-tb;fill:#000000;fill-opacity:1;fill-rule:nonzero;stroke:none"
   transform="matrix(1,0,0,-1,59.923,90.984)"><tspan
     id="tspan334"
     y="0"
     x="0 10.345201 15.824652 20.690403 30.893139 38.805466 48.383545 51.430119 56.295868 59.342445 69.545181 74.410934 79.890381 85.369827 90.849281 98.619141 102.26846 107.13421 112.61366 121.13968 126.61913 129.66571 132.71228 135.74789 141.22734 146.70679 155.07939 164.66843">Whenwetalkabout‘compiling’aL</tspan></text>
<text
   id="text340"
   style="font-variant:normal;font-size:7.6712px;font-family:'Nimbus Roman';-inkscape-font-specification:NimbusRomNo9L-Regu;writing-mode:lr-tb;fill:#000000;fill-opacity:1;fill-rule:nonzero;stroke:none"
   transform="matrix(1,0,0,-1,227.34,93.18)"><tspan
     id="tspan338"
     y="0"
     x="0">A</tspan></text>
<text
   id="text350"
   style="font-variant:normal;font-size:10.9589px;font-family:'Nimbus Roman';-inkscape-font-specification:NimbusRomNo9L-Regu;writing-mode:lr-tb;fill:#000000;fill-opacity:1;fill-rule:nonzero;stroke:none"
   transform="matrix(1,0,0,-1,231.235,90.984)"><tspan
     id="tspan342"
     y="0"
     x="0">T</tspan><tspan
     id="tspan344"
     y="2.4660001"
     x="4.869">E</tspan><tspan
     id="tspan346"
     y="0"
     x="10.195 22.830612 28.310062 33.789513 38.655262 44.134712 52.660736 57.526489 63.005939 66.052513">Xdocument,</tspan><tspan
     id="tspan348"
     y="13.335"
     x="-182.271 -178.62169 -173.75594 -168.89018 -165.84361 -162.79703 -153.8765 -145.96416 -140.48471 -135.62993 -129.14226 -121.22993 -112.92308 -104.39706 -99.531303 -94.66555 -85.755966 -82.709396 -75.005287 -71.95871 -66.479263 -61.61351 -55.136803 -52.090225 -46.610775 -38.303932 -32.824482 -29.175167 -23.695717 -18.216267 -14.566954 -9.7012014 2.2549582 10.167284 13.816598 16.863173 19.909746 22.95632 27.822071 36.742615 39.789192 48.698776 54.178226 59.657677 65.137123">reallywhatwemeanisthattheprogramwritteninyour</tspan></text>
<g
   transform="translate(308.79,592.901)"
   id="g352"><path
     id="path354"
     style="fill:none;stroke:#000000;stroke-width:0.398;stroke-linecap:butt;stroke-linejoin:miter;stroke-miterlimit:10;stroke-dasharray:none;stroke-opacity:1"
     d="M 0,0 V 3.387" /></g><g
   transform="translate(308.59,596.089)"
   id="g356"><path
     id="path358"
     style="fill:none;stroke:#000000;stroke-width:0.398;stroke-linecap:butt;stroke-linejoin:miter;stroke-miterlimit:10;stroke-dasharray:none;stroke-opacity:1"
     d="M 0,0 H 3.387" /></g><g
   transform="translate(311.978,596.089)"
   id="g360"><path
     id="path362"
     style="fill:none;stroke:#000000;stroke-width:0.398;stroke-linecap:butt;stroke-linejoin:miter;stroke-miterlimit:10;stroke-dasharray:none;stroke-opacity:1"
     d="M 0,0 H 251.059" /></g><g
   transform="translate(563.036,596.089)"
   id="g364"><path
     id="path366"
     style="fill:none;stroke:#000000;stroke-width:0.398;stroke-linecap:butt;stroke-linejoin:miter;stroke-miterlimit:10;stroke-dasharray:none;stroke-opacity:1"
     d="M 0,0 H 3.387" /></g><g
   transform="translate(566.224,592.901)"
   id="g368"><path
     id="path370"
     style="fill:none;stroke:#000000;stroke-width:0.398;stroke-linecap:butt;stroke-linejoin:miter;stroke-miterlimit:10;stroke-dasharray:none;stroke-opacity:1"
     d="M 0,0 V 3.387" /></g><g
   transform="translate(308.79,580.946)"
   id="g372"><path
     id="path374"
     style="fill:none;stroke:#000000;stroke-width:0.398;stroke-linecap:butt;stroke-linejoin:miter;stroke-miterlimit:10;stroke-dasharray:none;stroke-opacity:1"
     d="M 0,0 V 11.955" /></g><g
   transform="translate(566.224,580.946)"
   id="g376"><path
     id="path378"
     style="fill:none;stroke:#000000;stroke-width:0.398;stroke-linecap:butt;stroke-linejoin:miter;stroke-miterlimit:10;stroke-dasharray:none;stroke-opacity:1"
     d="M 0,0 V 11.955" /></g><text
   id="text382"
   style="font-variant:normal;font-size:9.9626px;font-family:'Nimbus Mono PS';-inkscape-font-specification:NimbusMonL-Regu;writing-mode:lr-tb;fill:#000000;fill-opacity:1;fill-rule:nonzero;stroke:none"
   transform="matrix(1,0,0,-1,311.978,584.532)"><tspan
     id="tspan380"
     y="0"
     x="0 5.97756 11.95512 17.93268 23.91024 29.8878 35.86536 41.842918 47.82048 53.798038">\expanded{</tspan></text>
<g
   transform="translate(308.79,568.991)"
   id="g384"><path
     id="path386"
     style="fill:none;stroke:#000000;stroke-width:0.398;stroke-linecap:butt;stroke-linejoin:miter;stroke-miterlimit:10;stroke-dasharray:none;stroke-opacity:1"
     d="M 0,0 V 11.955" /></g><g
   transform="translate(566.224,568.991)"
   id="g388"><path
     id="path390"
     style="fill:none;stroke:#000000;stroke-width:0.398;stroke-linecap:butt;stroke-linejoin:miter;stroke-miterlimit:10;stroke-dasharray:none;stroke-opacity:1"
     d="M 0,0 V 11.955" /></g><text
   id="text404"
   style="font-variant:normal;font-size:9.9626px;font-family:'Nimbus Mono PS';-inkscape-font-specification:NimbusMonL-Regu;writing-mode:lr-tb;fill:#0000ff;fill-opacity:1;fill-rule:nonzero;stroke:none"
   transform="matrix(1,0,0,-1,323.933,572.577)"><tspan
     id="tspan392"
     y="0"
     x="0">\</tspan><tspan
     id="tspan394"
     y="0"
     x="5.97756 11.95512 17.93268 23.91024 29.8878 35.86536 41.842918 47.82048">noexpand</tspan><tspan
     id="tspan396"
     y="0"
     x="53.798038 59.7756 65.753159 71.730721 77.708282 83.685837 89.663399 95.640961 101.61852 107.59608">\pgfoonew\</tspan><tspan
     id="tspan398"
     y="0"
     x="113.57364 119.5512 125.52876 131.50632 137.48389 143.46144 149.439 155.41656 161.39412 167.37167 173.34924">expandafter</tspan><tspan
     id="tspan400"
     y="0"
     x="179.3268">\</tspan><tspan
     id="tspan402"
     y="0"
     x="185.30437 191.28192 197.25948 203.23705 209.2146 215.19215 221.16972 227.14728">noexpand</tspan></text>
<g
   transform="translate(308.79,557.035)"
   id="g406"><path
     id="path408"
     style="fill:none;stroke:#000000;stroke-width:0.398;stroke-linecap:butt;stroke-linejoin:miter;stroke-miterlimit:10;stroke-dasharray:none;stroke-opacity:1"
     d="M 0,0 V 11.955" /></g><g
   transform="translate(566.224,557.035)"
   id="g410"><path
     id="path412"
     style="fill:none;stroke:#000000;stroke-width:0.398;stroke-linecap:butt;stroke-linejoin:miter;stroke-miterlimit:10;stroke-dasharray:none;stroke-opacity:1"
     d="M 0,0 V 11.955" /></g><text
   id="text424"
   style="font-variant:normal;font-size:9.9626px;font-family:'Nimbus Mono PS';-inkscape-font-specification:NimbusMonL-Regu;writing-mode:lr-tb;fill:#000000;fill-opacity:1;fill-rule:nonzero;stroke:none"
   transform="matrix(1,0,0,-1,323.933,560.622)"><tspan
     id="tspan414"
     y="0"
     x="0">\</tspan><tspan
     id="tspan416"
     y="0"
     x="5.97756 11.95512 17.93268 23.91024 29.8878 35.86536">csname</tspan><tspan
     id="tspan418"
     y="0"
     x="47.82048 53.798038 59.7756">#2\</tspan><tspan
     id="tspan420"
     y="0"
     x="65.753159 71.730721 77.708282 83.685837 89.663399 95.640961 101.61852 107.59608 113.57364">endcsname</tspan><tspan
     id="tspan422"
     y="0"
     x="119.5512">=</tspan></text>
<g
   transform="translate(308.79,545.08)"
   id="g426"><path
     id="path428"
     style="fill:none;stroke:#000000;stroke-width:0.398;stroke-linecap:butt;stroke-linejoin:miter;stroke-miterlimit:10;stroke-dasharray:none;stroke-opacity:1"
     d="M 0,0 V 11.955" /></g><g
   transform="translate(566.224,545.08)"
   id="g430"><path
     id="path432"
     style="fill:none;stroke:#000000;stroke-width:0.398;stroke-linecap:butt;stroke-linejoin:miter;stroke-miterlimit:10;stroke-dasharray:none;stroke-opacity:1"
     d="M 0,0 V 11.955" /></g><text
   id="text436"
   style="font-variant:normal;font-size:9.9626px;font-family:'Nimbus Mono PS';-inkscape-font-specification:NimbusMonL-Regu;writing-mode:lr-tb;fill:#000000;fill-opacity:1;fill-rule:nonzero;stroke:none"
   transform="matrix(1,0,0,-1,323.933,548.667)"><tspan
     id="tspan434"
     y="0"
     x="0 5.97756 11.95512 23.91024 29.8878 35.86536 41.842918 47.82048 53.798038 59.7756 65.753159 71.730721 77.708282 83.685837 89.663399 95.640961 101.61852 107.59608 113.57364 119.5512 125.52876 131.50632 137.48389 143.46144 149.439 155.41656 161.39412 167.37167 173.34924 179.3268 185.30437 191.28192 197.25948 203.23705 209.2146">newValue(\newdata,{\selfid,\otherid</tspan></text>
<g
   transform="translate(308.79,533.125)"
   id="g438"><path
     id="path440"
     style="fill:none;stroke:#000000;stroke-width:0.398;stroke-linecap:butt;stroke-linejoin:miter;stroke-miterlimit:10;stroke-dasharray:none;stroke-opacity:1"
     d="M 0,0 V 11.955" /></g><g
   transform="translate(566.224,533.125)"
   id="g442"><path
     id="path444"
     style="fill:none;stroke:#000000;stroke-width:0.398;stroke-linecap:butt;stroke-linejoin:miter;stroke-miterlimit:10;stroke-dasharray:none;stroke-opacity:1"
     d="M 0,0 V 11.955" /></g><text
   id="text452"
   style="font-variant:normal;font-size:9.9626px;font-family:'Nimbus Mono PS';-inkscape-font-specification:NimbusMonL-Regu;writing-mode:lr-tb;fill:#000000;fill-opacity:1;fill-rule:nonzero;stroke:none"
   transform="matrix(1,0,0,-1,343.858,536.712)"><tspan
     id="tspan446"
     y="0"
     x="0 5.97756">},</tspan><tspan
     id="tspan448"
     y="1.744"
     x="11.955">*</tspan><tspan
     id="tspan450"
     y="0"
     x="17.933001 23.910561 29.888121">,0)</tspan></text>
<g
   transform="translate(308.79,521.17)"
   id="g454"><path
     id="path456"
     style="fill:none;stroke:#000000;stroke-width:0.398;stroke-linecap:butt;stroke-linejoin:miter;stroke-miterlimit:10;stroke-dasharray:none;stroke-opacity:1"
     d="M 0,0 V 11.955" /></g><g
   transform="translate(566.224,521.17)"
   id="g458"><path
     id="path460"
     style="fill:none;stroke:#000000;stroke-width:0.398;stroke-linecap:butt;stroke-linejoin:miter;stroke-miterlimit:10;stroke-dasharray:none;stroke-opacity:1"
     d="M 0,0 V 11.955" /></g><text
   id="text464"
   style="font-variant:normal;font-size:9.9626px;font-family:'Nimbus Mono PS';-inkscape-font-specification:NimbusMonL-Regu;writing-mode:lr-tb;fill:#000000;fill-opacity:1;fill-rule:nonzero;stroke:none"
   transform="matrix(1,0,0,-1,311.978,524.756)"><tspan
     id="tspan462"
     y="0"
     x="0">}</tspan></text>
<g
   transform="translate(308.79,517.783)"
   id="g466"><path
     id="path468"
     style="fill:none;stroke:#000000;stroke-width:0.398;stroke-linecap:butt;stroke-linejoin:miter;stroke-miterlimit:10;stroke-dasharray:none;stroke-opacity:1"
     d="M 0,0 V 3.387" /></g><g
   transform="translate(308.59,517.982)"
   id="g470"><path
     id="path472"
     style="fill:none;stroke:#000000;stroke-width:0.398;stroke-linecap:butt;stroke-linejoin:miter;stroke-miterlimit:10;stroke-dasharray:none;stroke-opacity:1"
     d="M 0,0 H 3.387" /></g><g
   transform="translate(311.978,517.982)"
   id="g474"><path
     id="path476"
     style="fill:none;stroke:#000000;stroke-width:0.398;stroke-linecap:butt;stroke-linejoin:miter;stroke-miterlimit:10;stroke-dasharray:none;stroke-opacity:1"
     d="M 0,0 H 251.059" /></g><g
   transform="translate(563.036,517.982)"
   id="g478"><path
     id="path480"
     style="fill:none;stroke:#000000;stroke-width:0.398;stroke-linecap:butt;stroke-linejoin:miter;stroke-miterlimit:10;stroke-dasharray:none;stroke-opacity:1"
     d="M 0,0 H 3.387" /></g><g
   transform="translate(566.224,517.783)"
   id="g482"><path
     id="path484"
     style="fill:none;stroke:#000000;stroke-width:0.398;stroke-linecap:butt;stroke-linejoin:miter;stroke-miterlimit:10;stroke-dasharray:none;stroke-opacity:1"
     d="M 0,0 V 3.387" /></g><text
   id="text488"
   style="font-variant:normal;font-size:10.9589px;font-family:'Nimbus Roman';-inkscape-font-specification:NimbusRomNo9L-Regu;writing-mode:lr-tb;fill:#000000;fill-opacity:1;fill-rule:nonzero;stroke:none"
   transform="matrix(1,0,0,-1,311.978,495.804)"><tspan
     id="tspan486"
     y="0"
     x="0 6.0931482 9.1397228 14.619173 21.501362 26.980812 34.169849 46.22464 51.70409 57.18354 60.832855 69.841072">Fig.1:ApureL</tspan></text>
<text
   id="text492"
   style="font-variant:normal;font-size:7.6712px;font-family:'Nimbus Roman';-inkscape-font-specification:NimbusRomNo9L-Regu;writing-mode:lr-tb;fill:#000000;fill-opacity:1;fill-rule:nonzero;stroke:none"
   transform="matrix(1,0,0,-1,384.567,498)"><tspan
     id="tspan490"
     y="0"
     x="0">A</tspan></text>
<text
   id="text508"
   style="font-variant:normal;font-size:10.9589px;font-family:'Nimbus Roman';-inkscape-font-specification:NimbusRomNo9L-Regu;writing-mode:lr-tb;fill:#000000;fill-opacity:1;fill-rule:nonzero;stroke:none"
   transform="matrix(1,0,0,-1,388.462,495.804)"><tspan
     id="tspan494"
     y="0"
     x="0">T</tspan><tspan
     id="tspan496"
     y="2.4660001"
     x="4.869">E</tspan><tspan
     id="tspan498"
     y="0"
     x="10.195 22.24979 25.296364 33.822388 39.301838 42.348412 47.214165 55.740189 60.605942 66.085388 69.131966 73.997719 77.044289 80.090866 85.570312 95.19223 100.67168 105.53743 113.94291 116.98948 122.46893 131.47714 136.95659 141.82234 147.3018 152.16756 158.2607 165.44974 170.92918">Ximplementationhasthebeneftof</tspan><tspan
     id="tspan500"
     y="13.335"
     x="-76.484001 -71.004547 -67.957977 -62.478527 -52.812775 -47.947025 -42.467575 -36.988125 -27.936073 -24.286758 -19.421007 -14.555256 -9.0758057 -4.2100544 1.2693955 4.3159695 7.3625441 10.409118 13.455692 18.222815 25.148838 31.077604 36.557053 44.392666 49.094036 54.573486 59.439236 67.965263 73.44471 76.491287 81.35704 88.283058 91.932373 96.798126 99.844704 105.32415 108.97346 114.45291 117.49949 122.97894 132.64468 135.69127 141.17072 150.22276 153.87209 158.73782 163.00084 168.48029 171.52687">highcodereadability.Forexample,returningtheresult</tspan><tspan
     id="tspan502"
     y="26.67"
     x="-76.484001 -71.004547 -62.412773 -52.604557 -47.125107 -43.475792 -37.996342 -32.516891 -27.037443 -22.171692 -14.182653 -8.7032032 -3.8374519 -0.7908777 7.121448 11.9872 16.852951 27.274866 30.32144 38.124176 48.546089 53.751568 58.617321 61.663895 67.143341 76.951561 82.431007 87.910461 90.957031 95.822784 100.68854 103.73511 112.94059 118.42004 123.89948 126.94606 137.36798 142.84743 147.11044 151.97618 161.18167 164.22824 169.70769">ofaproductbetweentwovalueobjectsonlyusesthe</tspan><tspan
     id="tspan504"
     y="40.004002"
     x="-76.484001 -68.681267 -63.201813 -59.552498 -50.237434 -46.58812 -41.886753 -36.407303 -30.927853 -26.062101 -20.582651 -15.103201 -7.6182723 -3.9689586 1.5104913 6.9899411 14.47487 17.521444 20.568018 29.094042 33.959793 38.222805">word‘expand’fourtimes.</tspan><tspan
     id="tspan506"
     y="79.554001"
     x="-76.484001">L</tspan></text>
<text
   id="text512"
   style="font-variant:normal;font-size:7.6712px;font-family:'Nimbus Roman';-inkscape-font-specification:NimbusRomNo9L-Regu;writing-mode:lr-tb;fill:#000000;fill-opacity:1;fill-rule:nonzero;stroke:none"
   transform="matrix(1,0,0,-1,314.728,418.446)"><tspan
     id="tspan510"
     y="0"
     x="0">A</tspan></text>
<text
   id="text520"
   style="font-variant:normal;font-size:10.9589px;font-family:'Nimbus Roman';-inkscape-font-specification:NimbusRomNo9L-Regu;writing-mode:lr-tb;fill:#000000;fill-opacity:1;fill-rule:nonzero;stroke:none"
   transform="matrix(1,0,0,-1,318.623,416.25)"><tspan
     id="tspan514"
     y="0"
     x="0">T</tspan><tspan
     id="tspan516"
     y="2.4660001"
     x="4.869">E</tspan><tspan
     id="tspan518"
     y="0"
     x="10.195 23.258009 28.737459 34.216908 39.082661 44.562111 53.088135 57.953888 63.433334 71.619637 74.666206 84.079903 88.781273 94.096336 98.96209 103.82784 109.30729 112.35387 117.21962 122.69907 130.57852 137.2744 142.75386 152.77029">Xdocumentisexecuted.TheL</tspan></text>
<text
   id="text524"
   style="font-variant:normal;font-size:7.6712px;font-family:'Nimbus Roman';-inkscape-font-specification:NimbusRomNo9L-Regu;writing-mode:lr-tb;fill:#000000;fill-opacity:1;fill-rule:nonzero;stroke:none"
   transform="matrix(1,0,0,-1,474.14,418.446)"><tspan
     id="tspan522"
     y="0"
     x="0">A</tspan></text>
<text
   id="text540"
   style="font-variant:normal;font-size:10.9589px;font-family:'Nimbus Roman';-inkscape-font-specification:NimbusRomNo9L-Regu;writing-mode:lr-tb;fill:#000000;fill-opacity:1;fill-rule:nonzero;stroke:none"
   transform="matrix(1,0,0,-1,478.035,416.25)"><tspan
     id="tspan526"
     y="0"
     x="0">T</tspan><tspan
     id="tspan528"
     y="2.4660001"
     x="4.869">E</tspan><tspan
     id="tspan530"
     y="0"
     x="10.195 23.258009 28.12376 33.60321 39.082661 42.129234 47.608685 57.614159 63.093609 67.959358 71.608673 75.871689 80.737442">Xengineparses</tspan><tspan
     id="tspan532"
     y="13.335"
     x="-166.05701 -161.19125 -155.71179 -147.49263 -142.01317 -138.36386 -132.88441 -128.01866 -123.15291 -118.88989 -114.62688 -109.76113 -102.75839 -99.711823 -94.232368 -86.626892 -81.147446 -75.667992 -70.802238 -65.322792 -56.796768 -51.931015 -46.451565 -43.404991 -37.936501 -34.287186 -29.421434 -25.158422 -19.678972 -16.632399 -11.152948 -8.1063747 -2.6269243 5.5922508 14.118275 18.984026 23.849777 27.499092 32.978542 37.241554 42.721004 47.422371 52.737438 57.603191 62.468941 67.948395 70.994965 74.041542 79.520988">andprocessesthedocument,resolvingmacros,executing</tspan><tspan
     id="tspan534"
     y="26.669001"
     x="-166.05701 -161.19125 -155.71179 -150.23235 -144.7529 -141.70633 -138.65974 -135.61317 -130.13373 -124.65427 -119.78852 -116.74195 -112.47894 -104.27072 -99.404968 -93.925522 -82.977577 -79.328262 -73.848816 -70.199501 -61.673477 -56.807724 -53.76115 -50.714577 -47.668003 -42.188553 -31.251572 -26.38582 -20.90637 -15.42692 -12.380345 -7.5145936 -2.0351436 6.4799218 11.959372 16.825123 20.474438 25.953886 29.603201 39.937443 45.416893 50.896343 53.942917 59.422367 64.901817 67.948395 70.994965 74.041542 79.520988">conditionals,andformattingcontentbeforeoutputting</tspan><tspan
     id="tspan536"
     y="40.004002"
     x="-166.05701 -163.01042 -157.53098 -147.03235 -140.93919 -135.45975 -130.59399 -121.91455 -118.26524 -113.39948 -109.13647 -103.65702 -100.61045 -97.563873 -89.191277">thefnalresult.N</tspan><tspan
     id="tspan538"
     y="42.470001"
     x="-82.371002">E</tspan></text>
<text
   id="text544"
   style="font-variant:normal;font-size:7.6712px;font-family:'Nimbus Roman';-inkscape-font-specification:NimbusRomNo9L-Regu;writing-mode:lr-tb;fill:#000000;fill-opacity:1;fill-rule:nonzero;stroke:none"
   transform="matrix(1,0,0,-1,401.264,378.442)"><tspan
     id="tspan542"
     y="0"
     x="0">U</tspan></text>
<text
   id="text552"
   style="font-variant:normal;font-size:10.9589px;font-family:'Nimbus Roman';-inkscape-font-specification:NimbusRomNo9L-Regu;writing-mode:lr-tb;fill:#000000;fill-opacity:1;fill-rule:nonzero;stroke:none"
   transform="matrix(1,0,0,-1,406.254,376.246)"><tspan
     id="tspan546"
     y="0"
     x="0">R</tspan><tspan
     id="tspan548"
     y="2.4660001"
     x="6.2140002">A</tspan><tspan
     id="tspan550"
     y="0"
     x="13.03">L</tspan></text>
<text
   id="text556"
   style="font-variant:normal;font-size:7.6712px;font-family:'Nimbus Roman';-inkscape-font-specification:NimbusRomNo9L-Regu;writing-mode:lr-tb;fill:#000000;fill-opacity:1;fill-rule:nonzero;stroke:none"
   transform="matrix(1,0,0,-1,422.035,378.442)"><tspan
     id="tspan554"
     y="0"
     x="0">A</tspan></text>
<text
   id="text564"
   style="font-variant:normal;font-size:10.9589px;font-family:'Nimbus Roman';-inkscape-font-specification:NimbusRomNo9L-Regu;writing-mode:lr-tb;fill:#000000;fill-opacity:1;fill-rule:nonzero;stroke:none"
   transform="matrix(1,0,0,-1,425.93,376.246)"><tspan
     id="tspan558"
     y="0"
     x="0">T</tspan><tspan
     id="tspan560"
     y="2.4660001"
     x="4.869">E</tspan><tspan
     id="tspan562"
     y="0"
     x="10.195 23.7402 26.786774 36.682663 47.181286 52.047039 57.526489 60.573063 63.619637 68.48539 73.351143 76.397713 79.44429 84.923737 96.04702 101.52647">Xisacollectionof</tspan></text>
<text
   id="text568"
   style="font-variant:normal;font-size:10.9589px;font-family:'Nimbus Mono PS';-inkscape-font-specification:NimbusMonL-Regu;writing-mode:lr-tb;fill:#000000;fill-opacity:1;fill-rule:nonzero;stroke:none"
   transform="matrix(1,0,0,-1,536.735,376.246)"><tspan
     id="tspan566"
     y="0"
     x="0 6.5753398 13.15068 19.726021">.tex</tspan></text>
<text
   id="text572"
   style="font-variant:normal;font-size:10.9589px;font-family:'Nimbus Roman';-inkscape-font-specification:NimbusRomNo9L-Regu;writing-mode:lr-tb;fill:#000000;fill-opacity:1;fill-rule:nonzero;stroke:none"
   transform="matrix(1,0,0,-1,311.978,362.911)"><tspan
     id="tspan570"
     y="0"
     x="0">L</tspan></text>
<text
   id="text576"
   style="font-variant:normal;font-size:7.6712px;font-family:'Nimbus Roman';-inkscape-font-specification:NimbusRomNo9L-Regu;writing-mode:lr-tb;fill:#000000;fill-opacity:1;fill-rule:nonzero;stroke:none"
   transform="matrix(1,0,0,-1,314.728,365.108)"><tspan
     id="tspan574"
     y="0"
     x="0">A</tspan></text>
<text
   id="text586"
   style="font-variant:normal;font-size:10.9589px;font-family:'Nimbus Roman';-inkscape-font-specification:NimbusRomNo9L-Regu;writing-mode:lr-tb;fill:#000000;fill-opacity:1;fill-rule:nonzero;stroke:none"
   transform="matrix(1,0,0,-1,318.623,362.911)"><tspan
     id="tspan578"
     y="0"
     x="0">T</tspan><tspan
     id="tspan580"
     y="2.4649999"
     x="4.869">E</tspan><tspan
     id="tspan582"
     y="0"
     x="10.195 21.131983 25.394995 30.874445 36.353893 40.003208 44.868961 52.770325 58.863476 61.910049 66.775803 74.063469 77.110046 82.589493 87.455246 93.526474 99.005928 104.48537 112.98948 117.85523 122.72099 131.23605 134.28262 139.76207 144.62782 147.67441 153.15385 158.6333 166.52371 169.57028 178.07439 183.55383 189.03329 194.51274 201.18671 206.66615 212.14561 217.01137 222.49081 231.01683 235.88258 241.36203">Xsourceflesthatyoucanincludeinyourdocument</tspan><tspan
     id="tspan584"
     y="13.334"
     x="-6.645 -1.16555 1.8810242">via</tspan></text>
<text
   id="text590"
   style="font-variant:normal;font-weight:normal;font-size:10.9091px;font-family:CMSY10;-inkscape-font-specification:CMSY10;writing-mode:lr-tb;fill:#000000;fill-opacity:1;fill-rule:nonzero;stroke:none"
   transform="matrix(1,0,0,-1,328.233,349.577)"><tspan
     id="tspan588"
     y="0"
     x="0">\</tspan></text>
<text
   id="text594"
   style="font-variant:normal;font-size:10.9589px;font-family:'Nimbus Mono PS';-inkscape-font-specification:NimbusMonL-Regu;writing-mode:lr-tb;fill:#000000;fill-opacity:1;fill-rule:nonzero;stroke:none"
   transform="matrix(1,0,0,-1,333.687,349.577)"><tspan
     id="tspan592"
     y="0"
     x="0 6.5753398 13.15068 19.726021 26.301359">input</tspan></text>
<text
   id="text598"
   style="font-variant:normal;font-weight:normal;font-size:10.9091px;font-family:CMSY10;-inkscape-font-specification:CMSY10;writing-mode:lr-tb;fill:#000000;fill-opacity:1;fill-rule:nonzero;stroke:none"
   transform="matrix(1,0,0,-1,366.564,349.577)"><tspan
     id="tspan596"
     y="0"
     x="0">{</tspan></text>
<text
   id="text602"
   style="font-variant:normal;font-size:10.9589px;font-family:'Nimbus Mono PS';-inkscape-font-specification:NimbusMonL-Regu;writing-mode:lr-tb;fill:#000000;fill-opacity:1;fill-rule:nonzero;stroke:none"
   transform="matrix(1,0,0,-1,372.019,349.577)"><tspan
     id="tspan600"
     y="0"
     x="0 6.5753398 13.15068">...</tspan></text>
<text
   id="text606"
   style="font-variant:normal;font-weight:normal;font-size:10.9091px;font-family:CMSY10;-inkscape-font-specification:CMSY10;writing-mode:lr-tb;fill:#000000;fill-opacity:1;fill-rule:nonzero;stroke:none"
   transform="matrix(1,0,0,-1,391.745,349.577)"><tspan
     id="tspan604"
     y="0"
     x="0">}</tspan></text>
<text
   id="text624"
   style="font-variant:normal;font-size:10.9589px;font-family:'Nimbus Roman';-inkscape-font-specification:NimbusRomNo9L-Regu;writing-mode:lr-tb;fill:#000000;fill-opacity:1;fill-rule:nonzero;stroke:none"
   transform="matrix(1,0,0,-1,397.199,349.577)"><tspan
     id="tspan608"
     y="0"
     x="0 5.599998 12.295886 17.775335 22.641087 26.9041 34.641083 40.120533 43.769848 49.084911 54.564362 57.610939 63.090385 70.816414 78.542435 82.80545 87.671204 91.320511 94.367088 99.232841 106.35612 111.83557 118.35612 123.22187 128.70132 137.22734 145.75337 150.61913 156.09857 161.57802">.Theseprovideaseriesofcommands</tspan><tspan
     id="tspan610"
     y="13.335"
     x="-85.221001 -82.174423 -76.694977 -71.829224 -62.623749 -57.757996 -52.278545 -47.412796 -41.933346 -38.886772 -27.851158 -22.371708 -16.892258 -5.2539067 -2.2073326 9.4419785 14.921428 19.78718 25.880329 31.359777 42.38443 53.420044 58.899494 63.765247 69.244698 72.894012 77.759758 86.96524 92.444687 97.31044 100.35701 108.15975 113.6392 117.28851 122.76796 131.67755 134.72412 140.20357 145.06932 156.70767 162.18713">thatenableyoutodefneaneuralnetwork,loador</tspan><tspan
     id="tspan612"
     y="26.669001"
     x="-85.221001 -79.741547 -74.875801 -69.396347 -64.530594 -60.881283 -56.01553 -52.968956 -44.015537 -40.968964 -37.319649 -32.453896 -29.407322 -23.927872 -20.881298 -15.401848 -5.8237696 -0.95801789 4.5214319 14.088552 18.68033 23.885809 28.75156 31.798134 37.277584 42.143337 45.189911 48.236485 53.715935 63.283054 68.762505 73.628258 76.674828 81.540581 88.367973 91.414551 95.063866 99.929619 102.97619 112.55427 115.60085 121.08029 130.03371 135.51317 140.37892 143.42549 151.22823 156.70767 160.35699">generatetrainingandevaluationdata,trainthenetwork</tspan><tspan
     id="tspan614"
     y="40.004002"
     x="-85.221001 -79.741547 -76.694977 -67.785393 -62.305939 -57.440189 -52.574436 -47.094986 -41.615536 -37.966225 -32.486774 -22.96349 -18.097738 -12.618287 -3.0950034 0.55431032 6.0337601 15.568004 18.614578 24.094027 27.743341 32.609093 36.258408 41.124157 46.603607 51.46936 60.378944 65.858398 75.381676 78.428253 83.907707 92.817291 95.863861 99.513176 104.37893 107.42551 112.90495 117.77071 127.29399 132.77344 137.63919 140.68576 148.48849 153.96796 157.61726 163.09671">viabackpropandruninferenceonthetrainednetwork.</tspan><tspan
     id="tspan616"
     y="53.339001"
     x="-85.221001 -77.308678 -74.2621 -67.347031 -61.867584 -54.338821 -51.292244 -45.812794 -42.76622 -34.62376 -29.144308 -24.278557 -18.799107 -13.319657 -8.4539051 -2.9744556 5.1570482 13.069374 18.548824 23.414576 32.773476 38.252926 43.732376 49.211826 56.729633 62.209084 67.68853 72.554283 78.03373 86.559761 91.425507 96.904961 103.83099 106.87756 115.00906 118.65838 123.52412 129.00357 137.5296 143.00905 146.05562 149.1022 153.96796 159.4474 163.09671">Allofthishappenswhenyourdocumentis‘compiled’.</tspan><tspan
     id="tspan618"
     y="66.672997"
     x="-85.221001 -78.525108 -73.045662 -62.481281 -58.83197 -53.966217 -49.703205 -44.223755 -41.177181 -38.130608 -28.168966 -23.905954 -18.426504 -13.221027 -5.308701 5.8693767 8.9159508 20.094028 26.187178 31.052929 35.918682 38.965256 42.011829 47.49128 58.669357 62.318672 75.918663 80.784416 84.433731 94.998108 99.863861 102.91044 111.65564 117.13509 122.61454 128.09399 132.95975 141.48576 144.53233 149.39809 154.26384 157.31041 160.35699">TheresultsshowninSectionIVarealldynamically</tspan><tspan
     id="tspan620"
     y="80.008003"
     x="-85.221001 -79.741547 -74.875801 -69.396347 -64.530594 -60.881283 -56.01553 -52.968956 -48.103207 -37.933346 -33.067596 -25.330612 -20.464859 -14.98541 -6.4593859 -0.97993571 2.0666385 5.1132126 14.669374 17.715948 20.762522 29.288546 38.844707 44.324158 48.58717 51.622784 57.102234 67.272095 76.828255 82.307701 87.173454 92.652908 96.302223 101.16797 108.90495 114.38441 119.25015 122.29673 130.09947 135.57892 139.22823 149.39809 152.44467 157.92412 162.78987">generatedatcompiletimeusinganeuralnetworkthat</tspan><tspan
     id="tspan622"
     y="93.342003"
     x="-85.221001 -77.418266 -72.552513 -64.453888 -61.40731 -58.360737 -54.097725 -49.231972 -46.185398 -38.70047 -35.653896 -32.004581 -27.13883 -24.092257 -18.612806 -13.747054 -4.4319892 3.4803367 8.9597864 12.006361 15.052935 23.754301 26.800877 32.280327 40.981693">wasitselftrainedwhiletheL</tspan></text>
<text
   id="text628"
   style="font-variant:normal;font-size:7.6712px;font-family:'Nimbus Roman';-inkscape-font-specification:NimbusRomNo9L-Regu;writing-mode:lr-tb;fill:#000000;fill-opacity:1;fill-rule:nonzero;stroke:none"
   transform="matrix(1,0,0,-1,440.93,258.431)"><tspan
     id="tspan626"
     y="0"
     x="0">A</tspan></text>
<text
   id="text636"
   style="font-variant:normal;font-size:10.9589px;font-family:'Nimbus Roman';-inkscape-font-specification:NimbusRomNo9L-Regu;writing-mode:lr-tb;fill:#000000;fill-opacity:1;fill-rule:nonzero;stroke:none"
   transform="matrix(1,0,0,-1,444.825,256.235)"><tspan
     id="tspan630"
     y="0"
     x="0">T</tspan><tspan
     id="tspan632"
     y="2.4660001"
     x="4.869">E</tspan><tspan
     id="tspan634"
     y="0"
     x="10.195 21.942942 27.42239 32.90184 37.767593 43.247044 51.773067 56.638817 62.118267 69.000458 73.866211 79.345657 87.871681 93.351135 96.397705 99.444283 104.31004 109.78948">Xdocumentcompiled.</tspan></text>
<text
   id="text640"
   style="font-variant:normal;font-size:10.9589px;font-family:'Nimbus Roman';-inkscape-font-specification:NimbusRomNo9L-ReguItal;writing-mode:lr-tb;fill:#000000;fill-opacity:1;fill-rule:nonzero;stroke:none"
   transform="matrix(1,0,0,-1,311.978,230.641)"><tspan
     id="tspan638"
     y="0"
     x="0 6.695888 14.915063 24.043827 29.523277 38.224644">B.WhyL</tspan></text>
<text
   id="text644"
   style="font-variant:normal;font-size:7.6712px;font-family:'Nimbus Roman';-inkscape-font-specification:NimbusRomNo9L-ReguItal;writing-mode:lr-tb;fill:#000000;fill-opacity:1;fill-rule:nonzero;stroke:none"
   transform="matrix(1,0,0,-1,352.35,232.696)"><tspan
     id="tspan642"
     y="0"
     x="0">A</tspan></text>
<text
   id="text654"
   style="font-variant:normal;font-size:10.9589px;font-family:'Nimbus Roman';-inkscape-font-specification:NimbusRomNo9L-ReguItal;writing-mode:lr-tb;fill:#000000;fill-opacity:1;fill-rule:nonzero;stroke:none"
   transform="matrix(1,0,0,-1,355.394,230.641)"><tspan
     id="tspan646"
     y="0"
     x="0">T</tspan><tspan
     id="tspan648"
     y="2.4159999"
     x="4.2659998">E</tspan><tspan
     id="tspan650"
     y="0"
     x="9.592 16.287888">X?</tspan><tspan
     id="tspan652"
     y="18.788"
     x="-32.457001 -26.977551 -17.848785 -11.152899 -0.79673791 2.2498362 7.7292862 12.595037 18.074488 25.986814 31.466263 35.236126 40.605988 46.085438 50.184067 55.663513 63.57584 71.488167 74.534744 80.014191 90.370354 93.416924 98.896378 104.37582 109.85528 115.33472 120.70459 126.07445 130.9402">1)Anidealprogramminglanguage:</tspan></text>
<text
   id="text662"
   style="font-variant:normal;font-size:10.9589px;font-family:'Nimbus Roman';-inkscape-font-specification:NimbusRomNo9L-Regu;writing-mode:lr-tb;fill:#000000;fill-opacity:1;fill-rule:nonzero;stroke:none"
   transform="matrix(1,0,0,-1,496.679,211.853)"><tspan
     id="tspan656"
     y="0"
     x="0 7.9123259 18.268486 23.747936 29.227386 39.572586 43.835602 49.315048 57.841076 62.706825">Doyousome-</tspan><tspan
     id="tspan658"
     y="13.335"
     x="-184.701 -181.65442 -178.60785 -170.08183 -165.21608 -154.7832 -148.69005 -143.2106 -131.56129 -128.51472 -119.30924 -113.8298 -108.96404 -105.31473 -93.665421 -90.618843 -78.969536 -73.490082 -68.624329 -63.758579 -60.712006 -55.232555 -44.196941 -36.284618 -30.805168 -25.939415 -22.892841 -17.413391 -12.54764 -2.7394245 0.3071498 11.956461 16.657829 22.13728 27.616728 32.482479 37.961929 43.44138 52.350967 57.830418 63.309864">timesfndithardtodecidewhethertoexpand,not</tspan><tspan
     id="tspan660"
     y="26.669001"
     x="-184.701 -179.99963 -174.52019 -169.04073 -164.17499 -158.69553 -146.34485 -140.8654 -130.34485 -125.64349 -120.16404 -114.68459 -109.81884 -104.33939 -91.988708 -87.122955 -83.47364 -80.427063 -75.561317 -71.912003 -60.175018 -50.706532 -45.840778 -42.794205 -39.747631 -30.136675 -22.224348 -19.177774 -16.131201 -3.78052">expandorexpandafter?Well,withL</tspan></text>
<text
   id="text666"
   style="font-variant:normal;font-size:7.6712px;font-family:'Nimbus Roman';-inkscape-font-specification:NimbusRomNo9L-Regu;writing-mode:lr-tb;fill:#000000;fill-opacity:1;fill-rule:nonzero;stroke:none"
   transform="matrix(1,0,0,-1,495.644,187.38)"><tspan
     id="tspan664"
     y="0"
     x="0">A</tspan></text>
<text
   id="text682"
   style="font-variant:normal;font-size:10.9589px;font-family:'Nimbus Roman';-inkscape-font-specification:NimbusRomNo9L-Regu;writing-mode:lr-tb;fill:#000000;fill-opacity:1;fill-rule:nonzero;stroke:none"
   transform="matrix(1,0,0,-1,499.539,185.184)"><tspan
     id="tspan668"
     y="0"
     x="0">T</tspan><tspan
     id="tspan670"
     y="2.4660001"
     x="4.869">E</tspan><tspan
     id="tspan672"
     y="0"
     x="10.195 24.978556 30.458006 35.937454 48.288136 53.153889 58.019638">Xyoucan</tspan><tspan
     id="tspan674"
     y="13.335"
     x="-187.561 -182.08154 -171.1884 -166.32265 -163.27608 -154.81581 -149.33635 -140.27335 -137.22678 -131.74733 -126.26788 -122.00486 -111.72541 -106.85966 -101.38021 -90.476105 -81.950081 -76.470634 -72.82132 -62.54187 -58.892555 -54.629543 -49.76379 -39.484344 -33.391193 -30.34462 -24.865171 -19.385721 -15.736407 -5.4569588 0.0224913 3.6718049 11.825227 22.170427 27.649878 38.543026 44.022476 48.888226 53.753979 59.233429">doallofthoseandmore(seeFigure1).Whoneeds</tspan><tspan
     id="tspan676"
     y="26.669001"
     x="-187.561 -182.35553 -177.48978 -173.84045 -170.79388 -165.92813 -160.44868 -157.4021 -152.53636 -140.19664 -132.2843 -126.80486 -121.93911 -108.37199 -102.89254 -97.413086 -83.856926 -78.37748 -73.730904 -68.41584 -55.462418 -46.936394 -42.070644 -37.204891 -33.55558 -28.076128 -23.813116 -10.870655 -0.52545369 4.9539962 18.521114 24.000565 28.866316 33.732067 39.211517 51.551239 56.416992 59.847126">variableswhenyouhavemacros?Whoneedsar-</tspan><tspan
     id="tspan678"
     y="40.004002"
     x="-187.561 -183.91168 -179.04593 -173.56648 -163.86786 -155.95554 -150.47609 -145.61034 -134.69527 -129.21582 -123.73637 -112.8213 -107.95555 -103.0898 -92.174736 -87.308983 -83.659668 -78.793915 -73.928169 -70.881592 -60.591183 -55.725433 -50.245983 -41.719959 -33.193935 -28.328182 -20.152843 -15.889832 -11.02408 -5.5446301 -0.67887831 2.9704354 7.8361869 10.882761 15.748513 21.227962 29.403303 33.666313 36.712887 40.362202 43.408775 48.888226 54.367676 58.630688">rayswhenyoucancreatecomma,separated,strings?</tspan><tspan
     id="tspan680"
     y="53.339001"
     x="-187.561 -177.21581 -171.73634 -160.10896 -152.30621 -147.44046 -141.96101 -138.91444 -128.51445 -117.50076 -113.23774 -110.19117 -101.66514 -96.185692 -93.139114">Whowantsasimple</tspan></text>
<text
   id="text686"
   style="font-variant:normal;font-size:10.9589px;font-family:'Nimbus Mono PS';-inkscape-font-specification:NimbusMonL-Regu;writing-mode:lr-tb;fill:#000000;fill-opacity:1;fill-rule:nonzero;stroke:none"
   transform="matrix(1,0,0,-1,417.41,131.845)"><tspan
     id="tspan684"
     y="0"
     x="0 6.5753398 13.15068">for</tspan></text>
<text
   id="text690"
   style="font-variant:normal;font-size:10.9589px;font-family:'Nimbus Roman';-inkscape-font-specification:NimbusRomNo9L-Regu;writing-mode:lr-tb;fill:#000000;fill-opacity:1;fill-rule:nonzero;stroke:none"
   transform="matrix(1,0,0,-1,443.28,131.845)"><tspan
     id="tspan688"
     y="0"
     x="0 3.0465741 8.5260239 14.005474 25.632868 33.545193 39.024643 43.890396 55.506828 60.986279 66.465729 78.093124 82.95887 87.824623 99.452019 104.93147 109.57804 114.8931">loopwhenyoucanhave</tspan></text>
<text
   id="text694"
   style="font-variant:normal;font-size:10.9589px;font-family:'Nimbus Mono PS';-inkscape-font-specification:NimbusMonL-Regu;writing-mode:lr-tb;fill:#000000;fill-opacity:1;fill-rule:nonzero;stroke:none"
   transform="matrix(1,0,0,-1,311.978,118.511)"><tspan
     id="tspan692"
     y="0"
     x="0 6.5753398 13.15068 19.726021 26.301359 32.876701 39.452042 46.027382 52.602718 59.178059 65.753403 72.328743 78.904083 85.479424 92.054764 98.630096 105.20544 111.78078 118.35612 124.93146 131.50681 138.08214 144.65749 151.23282">pgfplotsforeachungrouped</tspan></text>
<text
   id="text698"
   style="font-variant:normal;font-size:10.9589px;font-family:'Nimbus Roman';-inkscape-font-specification:NimbusRomNo9L-Regu;writing-mode:lr-tb;fill:#000000;fill-opacity:1;fill-rule:nonzero;stroke:none"
   transform="matrix(1,0,0,-1,469.786,118.511)"><tspan
     id="tspan696"
     y="0"
     x="0">?</tspan></text>
<text
   id="text702"
   style="font-variant:normal;font-size:10.9589px;font-family:'Nimbus Roman';-inkscape-font-specification:NimbusRomNo9L-ReguItal;writing-mode:lr-tb;fill:#000000;fill-opacity:1;fill-rule:nonzero;stroke:none"
   transform="matrix(1,0,0,-1,322.937,104.318)"><tspan
     id="tspan700"
     y="0"
     x="0 5.4794502 14.608213 20.701363 26.180813 37.917793 42.180805 47.046558 50.093132 53.139706 56.789021 61.65477 67.134224 72.61367 75.660248 81.139694 84.186272 89.665718 94.531471 106.88215 112.3616 117.84105 123.3205 128.18625 132.44926">2)Theself-containedpaper:</tspan></text>
<text
   id="text708"
   style="font-variant:normal;font-size:10.9589px;font-family:'Nimbus Roman';-inkscape-font-specification:NimbusRomNo9L-Regu;writing-mode:lr-tb;fill:#000000;fill-opacity:1;fill-rule:nonzero;stroke:none"
   transform="matrix(1,0,0,-1,467.729,104.318)"><tspan
     id="tspan704"
     y="0"
     x="0 9.7424622 14.608213 19.473965 24.953415 27.999989 33.479439 45.216423 48.262997 53.128746 57.994499 61.643814 67.12326 70.169838 75.649284 87.999969 91.046539">Machinelearningis</tspan><tspan
     id="tspan706"
     y="13.334"
     x="-155.75101 -152.21127 -147.34552 -142.47977 -139.4332 -133.95375 -121.99759 -110.64417 -106.99485 -102.1291 -96.649651 -93.000336 -87.520889 -82.041435 -76.561989 -71.696236 -68.649666 -63.170212 -60.123638 -57.077065 -54.030491 -50.983917 -39.027756 -34.162006 -30.512691 -27.466116 -23.203104 -20.15653 -15.893518 -6.6661243 -0.8469485 4.6325016 16.588661 22.068111 25.717424 28.764 33.629749">facingareproducibilitycrisis.Toooften</tspan></text>
<text
   id="text714"
   style="font-variant:normal;font-size:10.9589px;font-family:'Nimbus Roman';-inkscape-font-specification:NimbusRomNo9L-ReguItal;writing-mode:lr-tb;fill:#000000;fill-opacity:1;fill-rule:nonzero;stroke:none"
   transform="matrix(1,0,0,-1,513.322,90.984)"><tspan
     id="tspan710"
     y="0"
     x="0 6.0931482 10.9589 16.438351 21.917801 33.260262 40.569847 43.616421 46.662994">“codewill</tspan><tspan
     id="tspan712"
     y="13.335"
     x="-201.34399 -195.86455 -186.70291 -178.79059 -173.31113 -167.83168 -158.65909 -153.17964 -148.31389 -142.83443 -139.78786 -136.74129 -131.26184 -125.78239 -122.73581 -113.57417 -108.09472 -102.61527 -97.135818 -87.349525 -81.870071 -76.390625 -70.911171 -66.045418 -57.486519 -52.007069 -47.141319 -42.275566 -37.409817 -31.930365 -28.883791 -23.404341 -17.924891 -13.059139 -8.193387">bemadeavailableuponpaperacceptance”</tspan></text>
<text
   id="text718"
   style="font-variant:normal;font-size:10.9589px;font-family:'Nimbus Roman';-inkscape-font-specification:NimbusRomNo9L-Regu;writing-mode:lr-tb;fill:#000000;fill-opacity:1;fill-rule:nonzero;stroke:none"
   transform="matrix(1,0,0,-1,515.525,77.649)"><tspan
     id="tspan716"
     y="0"
     x="0 5.4794502 10.345201 15.210953 20.690403 29.216427 34.08218 42.641079">becomesa</tspan></text>
</g></svg>
